<svg width="129" height="54" viewBox="0 0 129 54" fill="none" xmlns="http://www.w3.org/2000/svg">
<path d="M1.29 3.6825C1.23833 3.6825 1.195 3.6675 1.16 3.6375C1.12667 3.60583 1.11 3.56417 1.11 3.5125L0.935 3.375L1.1125 3.255H1.8775C2.05583 3.255 2.2 3.22583 2.31 3.1675C2.42 3.1075 2.50083 3.02167 2.5525 2.91C2.60417 2.79667 2.63 2.66 2.63 2.5C2.63 2.33833 2.60167 2.20667 2.545 2.105C2.49 2.00167 2.405 1.92583 2.29 1.8775C2.17667 1.8275 2.03167 1.8025 1.855 1.8025H1.0975L0.88 1.365C0.938333 1.365 1.01083 1.365 1.0975 1.365C1.18583 1.365 1.27667 1.365 1.37 1.365C1.465 1.365 1.55417 1.365 1.6375 1.365C1.72083 1.365 1.78833 1.365 1.84 1.365C2.27167 1.365 2.59167 1.45667 2.8 1.64C3.00833 1.82333 3.1125 2.10167 3.1125 2.475C3.1125 2.63833 3.08917 2.7925 3.0425 2.9375C2.9975 3.0825 2.92583 3.21083 2.8275 3.3225C2.72917 3.43417 2.60083 3.5225 2.4425 3.5875C2.28417 3.65083 2.09167 3.6825 1.865 3.6825H1.29ZM0.645 5V1.365H1.1125V5H0.645ZM3.69305 5V1.365H5.78055V1.7675H3.95555L4.15805 1.575V3.0275L3.95555 2.8925H5.60305V3.295H4.02555L4.15805 3.1475V4.83L3.95555 4.59H5.88805V5H3.69305ZM7.50859 5V2.0125C7.50859 1.95417 7.52026 1.90583 7.54359 1.8675C7.56693 1.82917 7.59859 1.80333 7.63859 1.79H6.49609V1.365H8.99609V1.79H7.98359V5H7.50859ZM9.63914 5V4.57H10.5041V2.0175C10.5041 1.95917 10.5158 1.91083 10.5391 1.8725C10.5641 1.83417 10.5958 1.80833 10.6341 1.795H9.63914V1.365H11.8491V1.795H10.9816V4.3475C10.9816 4.40417 10.9691 4.4525 10.9441 4.4925C10.9208 4.53083 10.89 4.55667 10.8516 4.57H11.8491V5H9.63914ZM13.5047 5V2.0125C13.5047 1.95417 13.5164 1.90583 13.5397 1.8675C13.563 1.82917 13.5947 1.80333 13.6347 1.79H12.4922V1.365H14.9922V1.79H13.9797V5H13.5047ZM16.7402 5.0725C16.6236 5.0725 16.5269 5.03333 16.4502 4.955C16.3736 4.875 16.3352 4.77 16.3352 4.64C16.3352 4.51167 16.3736 4.4075 16.4502 4.3275C16.5269 4.2475 16.6236 4.2075 16.7402 4.2075C16.8569 4.2075 16.9536 4.2475 17.0302 4.3275C17.1069 4.4075 17.1452 4.51167 17.1452 4.64C17.1452 4.77 17.1069 4.875 17.0302 4.955C16.9536 5.03333 16.8569 5.0725 16.7402 5.0725ZM19.7558 5.05C19.5058 5.05 19.2833 5.01 19.0883 4.93C18.8949 4.85 18.7424 4.72583 18.6308 4.5575C18.5191 4.38917 18.4616 4.17167 18.4583 3.905H18.9183C18.9216 4.085 18.9633 4.22833 19.0433 4.335C19.1233 4.44 19.2274 4.51583 19.3558 4.5625C19.4858 4.6075 19.6249 4.63 19.7733 4.63C19.9449 4.63 20.0866 4.605 20.1983 4.555C20.3116 4.50333 20.3966 4.43583 20.4533 4.3525C20.5099 4.26917 20.5383 4.18 20.5383 4.085C20.5383 3.94833 20.5033 3.8375 20.4333 3.7525C20.3633 3.6675 20.2633 3.59667 20.1333 3.54C20.0033 3.48167 19.8491 3.42417 19.6708 3.3675C19.4741 3.30417 19.2949 3.22417 19.1333 3.1275C18.9733 3.03083 18.8458 2.9125 18.7508 2.7725C18.6558 2.63083 18.6083 2.46333 18.6083 2.27C18.6083 2.05667 18.6608 1.87917 18.7658 1.7375C18.8708 1.59417 19.0108 1.48667 19.1858 1.415C19.3624 1.34333 19.5566 1.3075 19.7683 1.3075C20.0849 1.3075 20.3433 1.39167 20.5433 1.56C20.7433 1.72667 20.8641 1.98083 20.9058 2.3225H20.4608C20.4458 2.20917 20.4116 2.1075 20.3583 2.0175C20.3066 1.9275 20.2316 1.85667 20.1333 1.805C20.0349 1.75167 19.9083 1.725 19.7533 1.725C19.5399 1.725 19.3708 1.77167 19.2458 1.865C19.1208 1.95833 19.0583 2.0875 19.0583 2.2525C19.0583 2.36917 19.0808 2.46917 19.1258 2.5525C19.1724 2.63417 19.2524 2.70917 19.3658 2.7775C19.4808 2.84417 19.6391 2.91417 19.8408 2.9875C19.9858 3.03917 20.1266 3.09333 20.2633 3.15C20.4016 3.20667 20.5249 3.27417 20.6333 3.3525C20.7433 3.42917 20.8308 3.525 20.8958 3.64C20.9608 3.75333 20.9933 3.89417 20.9933 4.0625C20.9949 4.26917 20.9441 4.44667 20.8408 4.595C20.7391 4.74167 20.5949 4.85417 20.4083 4.9325C20.2233 5.01083 20.0058 5.05 19.7558 5.05ZM22.7363 5.075C22.473 5.075 22.2447 5.00083 22.0513 4.8525C21.858 4.70417 21.7088 4.48833 21.6038 4.205C21.4988 3.92 21.4463 3.5725 21.4463 3.1625C21.4463 2.55917 21.5622 2.09667 21.7938 1.775C22.0272 1.45333 22.3413 1.2925 22.7363 1.2925C23.1347 1.2925 23.4488 1.45333 23.6788 1.775C23.9105 2.09667 24.0263 2.55917 24.0263 3.1625C24.0263 3.5725 23.9738 3.92 23.8688 4.205C23.7655 4.48833 23.6172 4.70417 23.4238 4.8525C23.2305 5.00083 23.0013 5.075 22.7363 5.075ZM22.7363 4.64C22.9913 4.64 23.1905 4.52 23.3338 4.28C23.4788 4.04 23.5513 3.6675 23.5513 3.1625C23.5513 2.66417 23.4788 2.30083 23.3338 2.0725C23.1905 1.8425 22.9913 1.7275 22.7363 1.7275C22.483 1.7275 22.2838 1.8425 22.1388 2.0725C21.9955 2.30083 21.9238 2.66417 21.9238 3.1625C21.9238 3.6675 21.9955 4.04 22.1388 4.28C22.2838 4.52 22.483 4.64 22.7363 4.64ZM24.6594 5V1.365H26.8669V1.7675H24.9344L25.1294 1.5725V3.0875L24.9469 2.9525H26.6544V3.355H25.0519L25.1294 3.245V5H24.6594ZM28.4949 5V2.0125C28.4949 1.95417 28.5066 1.90583 28.5299 1.8675C28.5533 1.82917 28.5849 1.80333 28.6249 1.79H27.4824V1.365H29.9824V1.79H28.9699V5H28.4949ZM30.7505 5L30.2105 1.365H30.703L30.958 3.6575C30.9796 3.81417 31.0005 3.96583 31.0205 4.1125C31.0405 4.2575 31.0588 4.41917 31.0755 4.5975H31.093L31.233 3.6275L31.4655 2.24H31.998L32.2305 3.6275L32.363 4.5975H32.383C32.3996 4.41917 32.4188 4.2575 32.4405 4.1125C32.4621 3.96583 32.483 3.81417 32.503 3.6575L32.7605 1.365H33.2505L32.713 5H32.133L31.893 3.73C31.858 3.53667 31.8288 3.35583 31.8055 3.1875C31.7838 3.0175 31.7613 2.83583 31.738 2.6425H31.723C31.7013 2.83583 31.6788 3.0175 31.6555 3.1875C31.6321 3.35583 31.603 3.53667 31.568 3.73L31.333 5H30.7505ZM33.2335 5L34.411 1.365H35.051L36.2235 5H35.7335L35.3935 3.9075L35.661 4.0975H33.8535L34.0285 3.69H35.536L35.386 3.8825L34.941 2.435L34.736 1.7025H34.721L34.5185 2.435L33.726 5H33.2335ZM38.5791 5L37.7241 3.5175H37.0291L36.8616 3.48L36.9366 3.1725V3.0925H37.7316C37.8866 3.0925 38.0107 3.06083 38.1041 2.9975C38.1974 2.9325 38.2641 2.8475 38.3041 2.7425C38.3457 2.6375 38.3666 2.52333 38.3666 2.4C38.3666 2.26333 38.3441 2.14917 38.2991 2.0575C38.2541 1.96417 38.1807 1.89417 38.0791 1.8475C37.9774 1.80083 37.8416 1.7775 37.6716 1.7775L37.0741 1.775L37.0716 1.655L36.8591 1.365C36.9357 1.365 37.0216 1.365 37.1166 1.365C37.2116 1.365 37.3049 1.365 37.3966 1.365C37.4882 1.365 37.5674 1.365 37.6341 1.365C38.0391 1.365 38.3424 1.44917 38.5441 1.6175C38.7457 1.78417 38.8466 2.02917 38.8466 2.3525C38.8466 2.47417 38.8332 2.595 38.8066 2.715C38.7799 2.83333 38.7332 2.94417 38.6666 3.0475C38.5999 3.15083 38.5082 3.23917 38.3916 3.3125C38.2749 3.38417 38.1266 3.43417 37.9466 3.4625L37.9591 3.4025C38.0174 3.40083 38.0657 3.40583 38.1041 3.4175C38.1441 3.42917 38.1791 3.45083 38.2091 3.4825C38.2407 3.51417 38.2732 3.56 38.3066 3.62L39.1041 5H38.5791ZM36.6291 5V1.365H37.0891V5H36.6291ZM39.6696 5V1.365H41.7571V1.7675H39.9321L40.1346 1.575V3.0275L39.9321 2.8925H41.5796V3.295H40.0021L40.1346 3.1475V4.83L39.9321 4.59H41.8646V5H39.6696Z" fill="black"/>
<path d="M102.768 5.05C102.518 5.05 102.295 5.01 102.1 4.93C101.907 4.85 101.754 4.72583 101.643 4.5575C101.531 4.38917 101.473 4.17167 101.47 3.905H101.93C101.933 4.085 101.975 4.22833 102.055 4.335C102.135 4.44 102.239 4.51583 102.368 4.5625C102.498 4.6075 102.637 4.63 102.785 4.63C102.957 4.63 103.098 4.605 103.21 4.555C103.323 4.50333 103.408 4.43583 103.465 4.3525C103.522 4.26917 103.55 4.18 103.55 4.085C103.55 3.94833 103.515 3.8375 103.445 3.7525C103.375 3.6675 103.275 3.59667 103.145 3.54C103.015 3.48167 102.861 3.42417 102.683 3.3675C102.486 3.30417 102.307 3.22417 102.145 3.1275C101.985 3.03083 101.858 2.9125 101.763 2.7725C101.668 2.63083 101.62 2.46333 101.62 2.27C101.62 2.05667 101.673 1.87917 101.778 1.7375C101.883 1.59417 102.023 1.48667 102.198 1.415C102.374 1.34333 102.568 1.3075 102.78 1.3075C103.097 1.3075 103.355 1.39167 103.555 1.56C103.755 1.72667 103.876 1.98083 103.918 2.3225H103.473C103.458 2.20917 103.423 2.1075 103.37 2.0175C103.318 1.9275 103.243 1.85667 103.145 1.805C103.047 1.75167 102.92 1.725 102.765 1.725C102.552 1.725 102.383 1.77167 102.258 1.865C102.133 1.95833 102.07 2.0875 102.07 2.2525C102.07 2.36917 102.093 2.46917 102.138 2.5525C102.184 2.63417 102.264 2.70917 102.378 2.7775C102.493 2.84417 102.651 2.91417 102.853 2.9875C102.998 3.03917 103.138 3.09333 103.275 3.15C103.413 3.20667 103.537 3.27417 103.645 3.3525C103.755 3.42917 103.843 3.525 103.908 3.64C103.973 3.75333 104.005 3.89417 104.005 4.0625C104.007 4.26917 103.956 4.44667 103.853 4.595C103.751 4.74167 103.607 4.85417 103.42 4.9325C103.235 5.01083 103.018 5.05 102.768 5.05ZM104.643 5V4.57H105.508V2.0175C105.508 1.95917 105.52 1.91083 105.543 1.8725C105.568 1.83417 105.6 1.80833 105.638 1.795H104.643V1.365H106.853V1.795H105.986V4.3475C105.986 4.40417 105.973 4.4525 105.948 4.4925C105.925 4.53083 105.894 4.55667 105.856 4.57H106.853V5H104.643ZM107.581 5V1.365H108.179L109.151 3.635L109.514 4.51H109.531L109.461 3.62V1.365H109.911V5H109.314L108.349 2.745L107.991 1.8775H107.971L108.034 2.7825V5H107.581ZM111.774 5.07C111.501 5.07 111.267 4.99167 111.072 4.835C110.877 4.67833 110.727 4.45667 110.624 4.17C110.521 3.88333 110.469 3.54583 110.469 3.1575C110.469 2.7825 110.522 2.45583 110.629 2.1775C110.737 1.8975 110.891 1.68083 111.089 1.5275C111.287 1.3725 111.521 1.295 111.789 1.295C112.029 1.295 112.235 1.34667 112.407 1.45C112.58 1.55167 112.713 1.7025 112.807 1.9025C112.902 2.1025 112.952 2.35083 112.959 2.6475H112.462C112.453 2.45083 112.425 2.28417 112.377 2.1475C112.33 2.00917 112.259 1.90417 112.164 1.8325C112.071 1.76083 111.948 1.725 111.797 1.725C111.61 1.725 111.454 1.77917 111.329 1.8875C111.204 1.99583 111.109 2.15667 111.044 2.37C110.981 2.58167 110.949 2.84333 110.949 3.155C110.949 3.62 111.022 3.98417 111.167 4.2475C111.313 4.51083 111.522 4.6425 111.794 4.6425C111.941 4.6425 112.062 4.61167 112.157 4.55C112.252 4.48667 112.324 4.40417 112.374 4.3025C112.424 4.19917 112.454 4.0875 112.464 3.9675H112.939C112.929 4.1475 112.892 4.30667 112.829 4.445C112.767 4.58167 112.684 4.69667 112.579 4.79C112.476 4.88167 112.356 4.95167 112.219 5C112.082 5.04667 111.934 5.07 111.774 5.07ZM113.687 5V1.365H115.775V1.7675H113.95L114.152 1.575V3.0275L113.95 2.8925H115.597V3.295H114.02L114.152 3.1475V4.83L113.95 4.59H115.882V5H113.687ZM119.573 5V1.365H120.171L121.143 3.635L121.506 4.51H121.523L121.453 3.62V1.365H121.903V5H121.306L120.341 2.745L119.983 1.8775H119.963L120.026 2.7825V5H119.573ZM123.736 5.075C123.473 5.075 123.245 5.00083 123.051 4.8525C122.858 4.70417 122.709 4.48833 122.604 4.205C122.499 3.92 122.446 3.5725 122.446 3.1625C122.446 2.55917 122.562 2.09667 122.794 1.775C123.027 1.45333 123.341 1.2925 123.736 1.2925C124.135 1.2925 124.449 1.45333 124.679 1.775C124.91 2.09667 125.026 2.55917 125.026 3.1625C125.026 3.5725 124.974 3.92 124.869 4.205C124.765 4.48833 124.617 4.70417 124.424 4.8525C124.23 5.00083 124.001 5.075 123.736 5.075ZM123.736 4.64C123.991 4.64 124.19 4.52 124.334 4.28C124.479 4.04 124.551 3.6675 124.551 3.1625C124.551 2.66417 124.479 2.30083 124.334 2.0725C124.19 1.8425 123.991 1.7275 123.736 1.7275C123.483 1.7275 123.284 1.8425 123.139 2.0725C122.995 2.30083 122.924 2.66417 122.924 3.1625C122.924 3.6675 122.995 4.04 123.139 4.28C123.284 4.52 123.483 4.64 123.736 4.64ZM125.754 5L125.214 1.365H125.707L125.962 3.6575C125.984 3.81417 126.004 3.96583 126.024 4.1125C126.044 4.2575 126.063 4.41917 126.079 4.5975H126.097L126.237 3.6275L126.469 2.24H127.002L127.234 3.6275L127.367 4.5975H127.387C127.404 4.41917 127.423 4.2575 127.444 4.1125C127.466 3.96583 127.487 3.81417 127.507 3.6575L127.764 1.365H128.254L127.717 5H127.137L126.897 3.73C126.862 3.53667 126.833 3.35583 126.809 3.1875C126.788 3.0175 126.765 2.83583 126.742 2.6425H126.727C126.705 2.83583 126.683 3.0175 126.659 3.1875C126.636 3.35583 126.607 3.53667 126.572 3.73L126.337 5H125.754Z" fill="black"/>
<path d="M0.25 11H128.25" stroke="black" stroke-width="0.5" stroke-linecap="round"/>
<mask id="path-4-inside-1_35_1441" fill="white">
<path d="M9.88808 19.9436C13.2515 18.4436 16.6396 17.8228 19.4037 18.0432C22.1568 18.2628 24.3562 19.3266 25.2211 21.2659C26.0858 23.2053 25.4072 25.5533 23.7309 27.7483C22.0478 29.9518 19.3224 32.057 15.9594 33.5569C12.5962 35.0568 9.20877 35.6776 6.44472 35.4573C3.69155 35.2378 1.49141 34.1738 0.62636 32.2346C-0.238429 30.2954 0.440418 27.9482 2.11659 25.7532C3.7996 23.5495 6.52485 21.4436 9.88808 19.9436ZM19.3637 18.5413C16.698 18.3287 13.3941 18.9271 10.0922 20.3997C6.79027 21.8723 4.13722 23.9307 2.51406 26.0559C0.884558 28.1896 0.328202 30.3368 1.08339 32.0305C1.8389 33.7242 3.80836 34.7458 6.48476 34.9592C9.15041 35.1716 12.4544 34.5734 15.7562 33.1008C19.0579 31.6283 21.7102 29.5697 23.3334 27.4446C24.963 25.3108 25.5192 23.1628 24.7641 21.469C24.0085 19.7756 22.0397 18.7547 19.3637 18.5413Z"/>
</mask>
<path d="M9.88808 19.9436C13.2515 18.4436 16.6396 17.8228 19.4037 18.0432C22.1568 18.2628 24.3562 19.3266 25.2211 21.2659C26.0858 23.2053 25.4072 25.5533 23.7309 27.7483C22.0478 29.9518 19.3224 32.057 15.9594 33.5569C12.5962 35.0568 9.20877 35.6776 6.44472 35.4573C3.69155 35.2378 1.49141 34.1738 0.62636 32.2346C-0.238429 30.2954 0.440418 27.9482 2.11659 25.7532C3.7996 23.5495 6.52485 21.4436 9.88808 19.9436ZM19.3637 18.5413C16.698 18.3287 13.3941 18.9271 10.0922 20.3997C6.79027 21.8723 4.13722 23.9307 2.51406 26.0559C0.884558 28.1896 0.328202 30.3368 1.08339 32.0305C1.8389 33.7242 3.80836 34.7458 6.48476 34.9592C9.15041 35.1716 12.4544 34.5734 15.7562 33.1008C19.0579 31.6283 21.7102 29.5697 23.3334 27.4446C24.963 25.3108 25.5192 23.1628 24.7641 21.469C24.0085 19.7756 22.0397 18.7547 19.3637 18.5413Z" fill="black"/>
<path fill-rule="evenodd" clip-rule="evenodd" d="M9.88808 19.9436L9.8483 19.8544L9.8483 19.8544L9.88808 19.9436ZM19.4037 18.0432L19.4115 17.9459L19.4115 17.9459L19.4037 18.0432ZM25.2211 21.2659L25.3103 21.2261L25.3103 21.2261L25.2211 21.2659ZM23.7309 27.7483L23.8085 27.8076L23.8085 27.8076L23.7309 27.7483ZM15.9594 33.5569L15.9991 33.6461L15.9991 33.6461L15.9594 33.5569ZM6.44472 35.4573L6.43696 35.5546H6.43696L6.44472 35.4573ZM0.62636 32.2346L0.537169 32.2744L0.537175 32.2744L0.62636 32.2346ZM2.11659 25.7532L2.03898 25.6939L2.03898 25.6939L2.11659 25.7532ZM19.3637 18.5413L19.3714 18.4439L19.3714 18.4439L19.3637 18.5413ZM10.0922 20.3997L10.0524 20.3105L10.0524 20.3105L10.0922 20.3997ZM2.51406 26.0559L2.43645 25.9966L2.43644 25.9966L2.51406 26.0559ZM1.08339 32.0305L0.994199 32.0703L0.994206 32.0703L1.08339 32.0305ZM6.48476 34.9592L6.477 35.0566H6.477L6.48476 34.9592ZM15.7562 33.1008L15.796 33.19H15.796L15.7562 33.1008ZM23.3334 27.4446L23.411 27.5039L23.411 27.5039L23.3334 27.4446ZM24.7641 21.469L24.8532 21.4292L24.8532 21.4292L24.7641 21.469ZM9.88808 19.9436L9.92785 20.0328C13.2793 18.5381 16.651 17.9217 19.3959 18.1406L19.4037 18.0432L19.4115 17.9459C16.6281 17.724 13.2236 18.3491 9.8483 19.8544L9.88808 19.9436ZM19.4037 18.0432L19.3959 18.1406C22.1341 18.359 24.2884 19.4144 25.1319 21.3057L25.2211 21.2659L25.3103 21.2261C24.424 19.2388 22.1795 18.1667 19.4115 17.9459L19.4037 18.0432ZM25.2211 21.2659L25.1319 21.3056C25.9752 23.197 25.3205 25.5059 23.6532 27.689L23.7309 27.7483L23.8085 27.8076C25.4939 25.6006 26.1964 23.2135 25.3103 21.2261L25.2211 21.2659ZM23.7309 27.7483L23.6532 27.689C21.9819 29.8772 19.2707 31.9732 15.9196 33.4677L15.9594 33.5569L15.9991 33.6461C19.3741 32.1409 22.1137 30.0264 23.8085 27.8076L23.7309 27.7483ZM15.9594 33.5569L15.9196 33.4677C12.5684 34.9623 9.19731 35.5787 6.45248 35.3599L6.44472 35.4573L6.43696 35.5546C9.22023 35.7765 12.624 35.1513 15.9991 33.6461L15.9594 33.5569ZM6.44472 35.4573L6.45248 35.3599C3.71424 35.1416 1.55918 34.086 0.715545 32.1948L0.62636 32.2346L0.537175 32.2744C1.42364 34.2616 3.66886 35.3339 6.43696 35.5546L6.44472 35.4573ZM0.62636 32.2346L0.71555 32.1949C-0.127824 30.3036 0.527108 27.9955 2.19421 25.8125L2.11659 25.7532L2.03898 25.6939C0.353729 27.9008 -0.349035 30.2871 0.537169 32.2744L0.62636 32.2346ZM2.11659 25.7532L2.19421 25.8125C3.86551 23.6241 6.5766 21.5275 9.92786 20.0328L9.88808 19.9436L9.8483 19.8544C6.4731 21.3598 3.73369 23.4749 2.03898 25.6939L2.11659 25.7532ZM19.3637 18.5413L19.3714 18.4439C16.6865 18.2299 13.3663 18.8326 10.0524 20.3105L10.0922 20.3997L10.132 20.4889C13.4219 19.0217 16.7094 18.4276 19.3559 18.6386L19.3637 18.5413ZM10.0922 20.3997L10.0524 20.3105C6.73853 21.7884 4.07131 23.8561 2.43645 25.9966L2.51406 26.0559L2.59166 26.1152C4.20313 24.0053 6.84202 21.9561 10.132 20.4889L10.0922 20.3997ZM2.51406 26.0559L2.43644 25.9966C0.797759 28.1424 0.217647 30.3286 0.994199 32.0703L1.08339 32.0305L1.17258 31.9908C0.438757 30.3449 0.971358 28.2369 2.59167 26.1152L2.51406 26.0559ZM1.08339 32.0305L0.994206 32.0703C1.77108 33.8119 3.78548 34.842 6.477 35.0566L6.48476 34.9592L6.49252 34.8619C3.83124 34.6497 1.90672 33.6365 1.17258 31.9907L1.08339 32.0305ZM6.48476 34.9592L6.477 35.0566C9.16187 35.2705 12.4822 34.6679 15.796 33.19L15.7562 33.1008L15.7165 33.0116C12.4266 34.4788 9.13896 35.0728 6.49252 34.8619L6.48476 34.9592ZM15.7562 33.1008L15.796 33.19C19.1097 31.7122 21.7761 29.6442 23.411 27.5039L23.3334 27.4446L23.2558 27.3853C21.6443 29.4951 19.0061 31.5445 15.7165 33.0116L15.7562 33.1008ZM23.3334 27.4446L23.411 27.5039C25.0498 25.3581 25.6298 23.1709 24.8532 21.4292L24.7641 21.469L24.6749 21.5088C25.4087 23.1547 24.8762 25.2636 23.2558 27.3853L23.3334 27.4446ZM24.7641 21.469L24.8532 21.4292C24.0763 19.6879 22.0626 18.6586 19.3714 18.4439L19.3637 18.5413L19.3559 18.6386C22.0169 18.8508 23.9407 19.8633 24.6749 21.5088L24.7641 21.469Z" fill="black" fill-opacity="0.12" mask="url(#path-4-inside-1_35_1441)"/>
<path d="M40.7058 23.07C40.4324 23.07 40.1983 22.9917 40.0033 22.835C39.8083 22.6783 39.6591 22.4567 39.5558 22.17C39.4524 21.8833 39.4008 21.5458 39.4008 21.1575C39.4008 20.7825 39.4541 20.4558 39.5608 20.1775C39.6691 19.8975 39.8224 19.6808 40.0208 19.5275C40.2191 19.3725 40.4524 19.295 40.7208 19.295C40.9608 19.295 41.1666 19.3467 41.3383 19.45C41.5116 19.5517 41.6449 19.7025 41.7383 19.9025C41.8333 20.1025 41.8841 20.3508 41.8908 20.6475H41.3933C41.3849 20.4508 41.3566 20.2842 41.3083 20.1475C41.2616 20.0092 41.1908 19.9042 41.0958 19.8325C41.0024 19.7608 40.8799 19.725 40.7283 19.725C40.5416 19.725 40.3858 19.7792 40.2608 19.8875C40.1358 19.9958 40.0408 20.1567 39.9758 20.37C39.9124 20.5817 39.8808 20.8433 39.8808 21.155C39.8808 21.62 39.9533 21.9842 40.0983 22.2475C40.2449 22.5108 40.4541 22.6425 40.7258 22.6425C40.8724 22.6425 40.9933 22.6117 41.0883 22.55C41.1833 22.4867 41.2558 22.4042 41.3058 22.3025C41.3558 22.1992 41.3858 22.0875 41.3958 21.9675H41.8708C41.8608 22.1475 41.8241 22.3067 41.7608 22.445C41.6991 22.5817 41.6158 22.6967 41.5108 22.79C41.4074 22.8817 41.2874 22.9517 41.1508 23C41.0141 23.0467 40.8658 23.07 40.7058 23.07ZM42.6188 23V19.365H44.7063V19.7675H42.8813L43.0838 19.575V21.0275L42.8813 20.8925H44.5288V21.295H42.9513L43.0838 21.1475V22.83L42.8813 22.59H44.8138V23H42.6188ZM47.5244 23L46.6694 21.5175H45.9744L45.8069 21.48L45.8819 21.1725V21.0925H46.6769C46.8319 21.0925 46.956 21.0608 47.0494 20.9975C47.1427 20.9325 47.2094 20.8475 47.2494 20.7425C47.291 20.6375 47.3119 20.5233 47.3119 20.4C47.3119 20.2633 47.2894 20.1492 47.2444 20.0575C47.1994 19.9642 47.126 19.8942 47.0244 19.8475C46.9227 19.8008 46.7869 19.7775 46.6169 19.7775L46.0194 19.775L46.0169 19.655L45.8044 19.365C45.881 19.365 45.9669 19.365 46.0619 19.365C46.1569 19.365 46.2502 19.365 46.3419 19.365C46.4335 19.365 46.5127 19.365 46.5794 19.365C46.9844 19.365 47.2877 19.4492 47.4894 19.6175C47.691 19.7842 47.7919 20.0292 47.7919 20.3525C47.7919 20.4742 47.7785 20.595 47.7519 20.715C47.7252 20.8333 47.6785 20.9442 47.6119 21.0475C47.5452 21.1508 47.4535 21.2392 47.3369 21.3125C47.2202 21.3842 47.0719 21.4342 46.8919 21.4625L46.9044 21.4025C46.9627 21.4008 47.011 21.4058 47.0494 21.4175C47.0894 21.4292 47.1244 21.4508 47.1544 21.4825C47.186 21.5142 47.2185 21.56 47.2519 21.62L48.0494 23H47.5244ZM45.5744 23V19.365H46.0344V23H45.5744ZM49.4324 23V20.0125C49.4324 19.9542 49.4441 19.9058 49.4674 19.8675C49.4908 19.8292 49.5224 19.8033 49.5624 19.79H48.4199V19.365H50.9199V19.79H49.9074V23H49.4324ZM51.563 23V22.57H52.428V20.0175C52.428 19.9592 52.4396 19.9108 52.463 19.8725C52.488 19.8342 52.5196 19.8083 52.558 19.795H51.563V19.365H53.773V19.795H52.9055V22.3475C52.9055 22.4042 52.893 22.4525 52.868 22.4925C52.8446 22.5308 52.8138 22.5567 52.7755 22.57H53.773V23H51.563ZM54.591 23V19.365H56.7985V19.7675H54.866L55.061 19.5725V21.0875L54.8785 20.9525H56.586V21.355H54.9835L55.061 21.245V23H54.591ZM57.5591 23V22.57H58.4241V20.0175C58.4241 19.9592 58.4357 19.9108 58.4591 19.8725C58.4841 19.8342 58.5157 19.8083 58.5541 19.795H57.5591V19.365H59.7691V19.795H58.9016V22.3475C58.9016 22.4042 58.8891 22.4525 58.8641 22.4925C58.8407 22.5308 58.8099 22.5567 58.7716 22.57H59.7691V23H57.5591ZM60.6071 23V19.365H62.6946V19.7675H60.8696L61.0721 19.575V21.0275L60.8696 20.8925H62.5171V21.295H60.9396L61.0721 21.1475V22.83L60.8696 22.59H62.8021V23H60.6071ZM63.9777 23L63.8652 22.565H64.4227C64.646 22.565 64.8377 22.5117 64.9977 22.405C65.1577 22.2967 65.2802 22.1383 65.3652 21.93C65.4502 21.7217 65.4927 21.4667 65.4927 21.165C65.4927 20.8467 65.4518 20.5875 65.3702 20.3875C65.2902 20.1858 65.1702 20.0375 65.0102 19.9425C64.8518 19.8475 64.6552 19.8 64.4202 19.8H63.8452L63.9777 19.365H64.3652C64.8668 19.365 65.2593 19.5083 65.5427 19.795C65.826 20.0817 65.9677 20.5367 65.9677 21.16C65.9677 21.5633 65.8993 21.9017 65.7627 22.175C65.626 22.4483 65.4377 22.6542 65.1977 22.7925C64.9577 22.9308 64.681 23 64.3677 23H63.9777ZM63.5127 23V19.365H63.9777V23H63.5127ZM69.5813 23V19.365H71.7888V19.7675H69.8563L70.0513 19.5725V21.0875L69.8688 20.9525H71.5763V21.355H69.9738L70.0513 21.245V23H69.5813ZM73.6543 23.075C73.391 23.075 73.1626 23.0008 72.9693 22.8525C72.776 22.7042 72.6268 22.4883 72.5218 22.205C72.4168 21.92 72.3643 21.5725 72.3643 21.1625C72.3643 20.5592 72.4801 20.0967 72.7118 19.775C72.9451 19.4533 73.2593 19.2925 73.6543 19.2925C74.0526 19.2925 74.3668 19.4533 74.5968 19.775C74.8285 20.0967 74.9443 20.5592 74.9443 21.1625C74.9443 21.5725 74.8918 21.92 74.7868 22.205C74.6835 22.4883 74.5351 22.7042 74.3418 22.8525C74.1485 23.0008 73.9193 23.075 73.6543 23.075ZM73.6543 22.64C73.9093 22.64 74.1085 22.52 74.2518 22.28C74.3968 22.04 74.4693 21.6675 74.4693 21.1625C74.4693 20.6642 74.3968 20.3008 74.2518 20.0725C74.1085 19.8425 73.9093 19.7275 73.6543 19.7275C73.401 19.7275 73.2018 19.8425 73.0568 20.0725C72.9135 20.3008 72.8418 20.6642 72.8418 21.1625C72.8418 21.6675 72.9135 22.04 73.0568 22.28C73.2018 22.52 73.401 22.64 73.6543 22.64ZM77.5048 23L76.6498 21.5175H75.9548L75.7873 21.48L75.8623 21.1725V21.0925H76.6573C76.8123 21.0925 76.9365 21.0608 77.0298 20.9975C77.1232 20.9325 77.1898 20.8475 77.2298 20.7425C77.2715 20.6375 77.2923 20.5233 77.2923 20.4C77.2923 20.2633 77.2698 20.1492 77.2248 20.0575C77.1798 19.9642 77.1065 19.8942 77.0048 19.8475C76.9032 19.8008 76.7673 19.7775 76.5973 19.7775L75.9998 19.775L75.9973 19.655L75.7848 19.365C75.8615 19.365 75.9473 19.365 76.0423 19.365C76.1373 19.365 76.2307 19.365 76.3223 19.365C76.414 19.365 76.4932 19.365 76.5598 19.365C76.9648 19.365 77.2682 19.4492 77.4698 19.6175C77.6715 19.7842 77.7723 20.0292 77.7723 20.3525C77.7723 20.4742 77.759 20.595 77.7323 20.715C77.7057 20.8333 77.659 20.9442 77.5923 21.0475C77.5257 21.1508 77.434 21.2392 77.3173 21.3125C77.2007 21.3842 77.0523 21.4342 76.8723 21.4625L76.8848 21.4025C76.9432 21.4008 76.9915 21.4058 77.0298 21.4175C77.0698 21.4292 77.1048 21.4508 77.1348 21.4825C77.1665 21.5142 77.199 21.56 77.2323 21.62L78.0298 23H77.5048ZM75.5548 23V19.365H76.0148V23H75.5548ZM40.2158 27.6825C40.1641 27.6825 40.1208 27.6675 40.0858 27.6375C40.0524 27.6058 40.0358 27.5642 40.0358 27.5125L39.8608 27.375L40.0383 27.255H40.8033C40.9816 27.255 41.1258 27.2258 41.2358 27.1675C41.3458 27.1075 41.4266 27.0217 41.4783 26.91C41.5299 26.7967 41.5558 26.66 41.5558 26.5C41.5558 26.3383 41.5274 26.2067 41.4708 26.105C41.4158 26.0017 41.3308 25.9258 41.2158 25.8775C41.1024 25.8275 40.9574 25.8025 40.7808 25.8025H40.0233L39.8058 25.365C39.8641 25.365 39.9366 25.365 40.0233 25.365C40.1116 25.365 40.2024 25.365 40.2958 25.365C40.3908 25.365 40.4799 25.365 40.5633 25.365C40.6466 25.365 40.7141 25.365 40.7658 25.365C41.1974 25.365 41.5174 25.4567 41.7258 25.64C41.9341 25.8233 42.0383 26.1017 42.0383 26.475C42.0383 26.6383 42.0149 26.7925 41.9683 26.9375C41.9233 27.0825 41.8516 27.2108 41.7533 27.3225C41.6549 27.4342 41.5266 27.5225 41.3683 27.5875C41.2099 27.6508 41.0174 27.6825 40.7908 27.6825H40.2158ZM39.5708 29V25.365H40.0383V29H39.5708ZM42.6188 29V25.365H44.7063V25.7675H42.8813L43.0838 25.575V27.0275L42.8813 26.8925H44.5288V27.295H42.9513L43.0838 27.1475V28.83L42.8813 28.59H44.8138V29H42.6188ZM47.5244 29L46.6694 27.5175H45.9744L45.8069 27.48L45.8819 27.1725V27.0925H46.6769C46.8319 27.0925 46.956 27.0608 47.0494 26.9975C47.1427 26.9325 47.2094 26.8475 47.2494 26.7425C47.291 26.6375 47.3119 26.5233 47.3119 26.4C47.3119 26.2633 47.2894 26.1492 47.2444 26.0575C47.1994 25.9642 47.126 25.8942 47.0244 25.8475C46.9227 25.8008 46.7869 25.7775 46.6169 25.7775L46.0194 25.775L46.0169 25.655L45.8044 25.365C45.881 25.365 45.9669 25.365 46.0619 25.365C46.1569 25.365 46.2502 25.365 46.3419 25.365C46.4335 25.365 46.5127 25.365 46.5794 25.365C46.9844 25.365 47.2877 25.4492 47.4894 25.6175C47.691 25.7842 47.7919 26.0292 47.7919 26.3525C47.7919 26.4742 47.7785 26.595 47.7519 26.715C47.7252 26.8333 47.6785 26.9442 47.6119 27.0475C47.5452 27.1508 47.4535 27.2392 47.3369 27.3125C47.2202 27.3842 47.0719 27.4342 46.8919 27.4625L46.9044 27.4025C46.9627 27.4008 47.011 27.4058 47.0494 27.4175C47.0894 27.4292 47.1244 27.4508 47.1544 27.4825C47.186 27.5142 47.2185 27.56 47.2519 27.62L48.0494 29H47.5244ZM45.5744 29V25.365H46.0344V29H45.5744ZM49.6874 29.05C49.4374 29.05 49.2149 29.01 49.0199 28.93C48.8266 28.85 48.6741 28.7258 48.5624 28.5575C48.4508 28.3892 48.3933 28.1717 48.3899 27.905H48.8499C48.8533 28.085 48.8949 28.2283 48.9749 28.335C49.0549 28.44 49.1591 28.5158 49.2874 28.5625C49.4174 28.6075 49.5566 28.63 49.7049 28.63C49.8766 28.63 50.0183 28.605 50.1299 28.555C50.2433 28.5033 50.3283 28.4358 50.3849 28.3525C50.4416 28.2692 50.4699 28.18 50.4699 28.085C50.4699 27.9483 50.4349 27.8375 50.3649 27.7525C50.2949 27.6675 50.1949 27.5967 50.0649 27.54C49.9349 27.4817 49.7808 27.4242 49.6024 27.3675C49.4058 27.3042 49.2266 27.2242 49.0649 27.1275C48.9049 27.0308 48.7774 26.9125 48.6824 26.7725C48.5874 26.6308 48.5399 26.4633 48.5399 26.27C48.5399 26.0567 48.5924 25.8792 48.6974 25.7375C48.8024 25.5942 48.9424 25.4867 49.1174 25.415C49.2941 25.3433 49.4883 25.3075 49.6999 25.3075C50.0166 25.3075 50.2749 25.3917 50.4749 25.56C50.6749 25.7267 50.7958 25.9808 50.8374 26.3225H50.3924C50.3774 26.2092 50.3433 26.1075 50.2899 26.0175C50.2383 25.9275 50.1633 25.8567 50.0649 25.805C49.9666 25.7517 49.8399 25.725 49.6849 25.725C49.4716 25.725 49.3024 25.7717 49.1774 25.865C49.0524 25.9583 48.9899 26.0875 48.9899 26.2525C48.9899 26.3692 49.0124 26.4692 49.0574 26.5525C49.1041 26.6342 49.1841 26.7092 49.2974 26.7775C49.4124 26.8442 49.5708 26.9142 49.7724 26.9875C49.9174 27.0392 50.0583 27.0933 50.1949 27.15C50.3333 27.2067 50.4566 27.2742 50.5649 27.3525C50.6749 27.4292 50.7624 27.525 50.8274 27.64C50.8924 27.7533 50.9249 27.8942 50.9249 28.0625C50.9266 28.2692 50.8758 28.4467 50.7724 28.595C50.6708 28.7417 50.5266 28.8542 50.3399 28.9325C50.1549 29.0108 49.9374 29.05 49.6874 29.05ZM52.668 29.075C52.4046 29.075 52.1763 29.0008 51.983 28.8525C51.7896 28.7042 51.6405 28.4883 51.5355 28.205C51.4305 27.92 51.378 27.5725 51.378 27.1625C51.378 26.5592 51.4938 26.0967 51.7255 25.775C51.9588 25.4533 52.273 25.2925 52.668 25.2925C53.0663 25.2925 53.3805 25.4533 53.6105 25.775C53.8421 26.0967 53.958 26.5592 53.958 27.1625C53.958 27.5725 53.9055 27.92 53.8005 28.205C53.6971 28.4883 53.5488 28.7042 53.3555 28.8525C53.1621 29.0008 52.933 29.075 52.668 29.075ZM52.668 28.64C52.923 28.64 53.1221 28.52 53.2655 28.28C53.4105 28.04 53.483 27.6675 53.483 27.1625C53.483 26.6642 53.4105 26.3008 53.2655 26.0725C53.1221 25.8425 52.923 25.7275 52.668 25.7275C52.4146 25.7275 52.2155 25.8425 52.0705 26.0725C51.9271 26.3008 51.8555 26.6642 51.8555 27.1625C51.8555 27.6675 51.9271 28.04 52.0705 28.28C52.2155 28.52 52.4146 28.64 52.668 28.64ZM54.501 29V25.365H55.0985L56.071 27.635L56.4335 28.51H56.451L56.381 27.62V25.365H56.831V29H56.2335L55.2685 26.745L54.911 25.8775H54.891L54.9535 26.7825V29H54.501ZM57.1691 29L58.3466 25.365H58.9866L60.1591 29H59.6691L59.3291 27.9075L59.5966 28.0975H57.7891L57.9641 27.69H59.4716L59.3216 27.8825L58.8766 26.435L58.6716 25.7025H58.6566L58.4541 26.435L57.6616 29H57.1691ZM60.5771 29V25.365H61.0471V28.7925L60.8021 28.565H62.8296V29H60.5771ZM66.1632 29L67.3407 25.365H67.9807L69.1532 29H68.6632L68.3232 27.9075L68.5907 28.0975H66.7832L66.9582 27.69H68.4657L68.3157 27.8825L67.8707 26.435L67.6657 25.7025H67.6507L67.4482 26.435L66.6557 29H66.1632ZM69.4913 29V25.365H70.0888L71.0613 27.635L71.4238 28.51H71.4413L71.3713 27.62V25.365H71.8213V29H71.2238L70.2588 26.745L69.9013 25.8775H69.8813L69.9438 26.7825V29H69.4913ZM72.9718 29L72.8593 28.565H73.4168C73.6401 28.565 73.8318 28.5117 73.9918 28.405C74.1518 28.2967 74.2743 28.1383 74.3593 27.93C74.4443 27.7217 74.4868 27.4667 74.4868 27.165C74.4868 26.8467 74.446 26.5875 74.3643 26.3875C74.2843 26.1858 74.1643 26.0375 74.0043 25.9425C73.846 25.8475 73.6493 25.8 73.4143 25.8H72.8393L72.9718 25.365H73.3593C73.861 25.365 74.2535 25.5083 74.5368 25.795C74.8201 26.0817 74.9618 26.5367 74.9618 27.16C74.9618 27.5633 74.8935 27.9017 74.7568 28.175C74.6201 28.4483 74.4318 28.6542 74.1918 28.7925C73.9518 28.9308 73.6751 29 73.3618 29H72.9718ZM72.5068 29V25.365H72.9718V29H72.5068ZM39.5583 35V31.365H40.6408C40.9358 31.365 41.1699 31.405 41.3433 31.485C41.5166 31.565 41.6408 31.6733 41.7158 31.81C41.7908 31.945 41.8283 32.0967 41.8283 32.265C41.8283 32.485 41.7699 32.6683 41.6533 32.815C41.5383 32.96 41.3908 33.05 41.2108 33.085C41.3391 33.0883 41.4641 33.1208 41.5858 33.1825C41.7074 33.2425 41.8074 33.3317 41.8858 33.45C41.9641 33.5667 42.0033 33.7133 42.0033 33.89C42.0033 34.1483 41.9466 34.36 41.8333 34.525C41.7199 34.6883 41.5674 34.8083 41.3758 34.885C41.1841 34.9617 40.9708 35 40.7358 35H39.5583ZM40.0183 34.6H40.6883C40.9483 34.6 41.1483 34.5442 41.2883 34.4325C41.4299 34.3192 41.5008 34.15 41.5008 33.925C41.5008 33.755 41.4666 33.6267 41.3983 33.54C41.3299 33.4533 41.2383 33.395 41.1233 33.365C41.0099 33.3333 40.8824 33.3175 40.7408 33.3175H40.0183V34.6ZM40.0183 32.93H40.6533C40.7916 32.93 40.9124 32.9092 41.0158 32.8675C41.1191 32.8242 41.1991 32.7567 41.2558 32.665C41.3141 32.5733 41.3433 32.4533 41.3433 32.305C41.3449 32.1333 41.2941 32 41.1908 31.905C41.0891 31.81 40.9058 31.7625 40.6408 31.7625H40.0183V32.93ZM43.6813 35.05C43.4497 35.05 43.2413 35.0033 43.0563 34.91C42.873 34.815 42.728 34.6683 42.6213 34.47C42.5147 34.27 42.4613 34.0133 42.4613 33.7V31.36H42.9288V33.6425C42.9288 33.8242 42.9497 33.9775 42.9913 34.1025C43.033 34.2258 43.0897 34.3258 43.1613 34.4025C43.233 34.4775 43.3138 34.5317 43.4038 34.565C43.4955 34.5983 43.5897 34.615 43.6863 34.615C43.778 34.615 43.8672 34.5983 43.9538 34.565C44.0422 34.5317 44.1213 34.4775 44.1913 34.4025C44.2613 34.3258 44.3163 34.2258 44.3563 34.1025C44.398 33.9775 44.4188 33.8242 44.4188 33.6425V31.365H44.8863V33.7C44.8863 34.0133 44.8322 34.27 44.7238 34.47C44.6155 34.6683 44.4705 34.815 44.2888 34.91C44.1072 35.0033 43.9047 35.05 43.6813 35.05ZM46.6894 35.05C46.4394 35.05 46.2169 35.01 46.0219 34.93C45.8285 34.85 45.676 34.7258 45.5644 34.5575C45.4527 34.3892 45.3952 34.1717 45.3919 33.905H45.8519C45.8552 34.085 45.8969 34.2283 45.9769 34.335C46.0569 34.44 46.161 34.5158 46.2894 34.5625C46.4194 34.6075 46.5585 34.63 46.7069 34.63C46.8785 34.63 47.0202 34.605 47.1319 34.555C47.2452 34.5033 47.3302 34.4358 47.3869 34.3525C47.4435 34.2692 47.4719 34.18 47.4719 34.085C47.4719 33.9483 47.4369 33.8375 47.3669 33.7525C47.2969 33.6675 47.1969 33.5967 47.0669 33.54C46.9369 33.4817 46.7827 33.4242 46.6044 33.3675C46.4077 33.3042 46.2285 33.2242 46.0669 33.1275C45.9069 33.0308 45.7794 32.9125 45.6844 32.7725C45.5894 32.6308 45.5419 32.4633 45.5419 32.27C45.5419 32.0567 45.5944 31.8792 45.6994 31.7375C45.8044 31.5942 45.9444 31.4867 46.1194 31.415C46.296 31.3433 46.4902 31.3075 46.7019 31.3075C47.0185 31.3075 47.2769 31.3917 47.4769 31.56C47.6769 31.7267 47.7977 31.9808 47.8394 32.3225H47.3944C47.3794 32.2092 47.3452 32.1075 47.2919 32.0175C47.2402 31.9275 47.1652 31.8567 47.0669 31.805C46.9685 31.7517 46.8419 31.725 46.6869 31.725C46.4735 31.725 46.3044 31.7717 46.1794 31.865C46.0544 31.9583 45.9919 32.0875 45.9919 32.2525C45.9919 32.3692 46.0144 32.4692 46.0594 32.5525C46.106 32.6342 46.186 32.7092 46.2994 32.7775C46.4144 32.8442 46.5727 32.9142 46.7744 32.9875C46.9194 33.0392 47.0602 33.0933 47.1969 33.15C47.3352 33.2067 47.4585 33.2742 47.5669 33.3525C47.6769 33.4292 47.7644 33.525 47.8294 33.64C47.8944 33.7533 47.9269 33.8942 47.9269 34.0625C47.9285 34.2692 47.8777 34.4467 47.7744 34.595C47.6727 34.7417 47.5285 34.8542 47.3419 34.9325C47.1569 35.0108 46.9394 35.05 46.6894 35.05ZM48.5649 35V34.57H49.4299V32.0175C49.4299 31.9592 49.4416 31.9108 49.4649 31.8725C49.4899 31.8342 49.5216 31.8083 49.5599 31.795H48.5649V31.365H50.7749V31.795H49.9074V34.3475C49.9074 34.4042 49.8949 34.4525 49.8699 34.4925C49.8466 34.5308 49.8158 34.5567 49.7774 34.57H50.7749V35H48.5649ZM51.503 35V31.365H52.1005L53.073 33.635L53.4355 34.51H53.453L53.383 33.62V31.365H53.833V35H53.2355L52.2705 32.745L51.913 31.8775H51.893L51.9555 32.7825V35H51.503ZM54.611 35V31.365H56.6985V31.7675H54.8735L55.076 31.575V33.0275L54.8735 32.8925H56.521V33.295H54.9435L55.076 33.1475V34.83L54.8735 34.59H56.806V35H54.611ZM58.6816 35.05C58.4316 35.05 58.2091 35.01 58.0141 34.93C57.8207 34.85 57.6682 34.7258 57.5566 34.5575C57.4449 34.3892 57.3874 34.1717 57.3841 33.905H57.8441C57.8474 34.085 57.8891 34.2283 57.9691 34.335C58.0491 34.44 58.1532 34.5158 58.2816 34.5625C58.4116 34.6075 58.5507 34.63 58.6991 34.63C58.8707 34.63 59.0124 34.605 59.1241 34.555C59.2374 34.5033 59.3224 34.4358 59.3791 34.3525C59.4357 34.2692 59.4641 34.18 59.4641 34.085C59.4641 33.9483 59.4291 33.8375 59.3591 33.7525C59.2891 33.6675 59.1891 33.5967 59.0591 33.54C58.9291 33.4817 58.7749 33.4242 58.5966 33.3675C58.3999 33.3042 58.2207 33.2242 58.0591 33.1275C57.8991 33.0308 57.7716 32.9125 57.6766 32.7725C57.5816 32.6308 57.5341 32.4633 57.5341 32.27C57.5341 32.0567 57.5866 31.8792 57.6916 31.7375C57.7966 31.5942 57.9366 31.4867 58.1116 31.415C58.2882 31.3433 58.4824 31.3075 58.6941 31.3075C59.0107 31.3075 59.2691 31.3917 59.4691 31.56C59.6691 31.7267 59.7899 31.9808 59.8316 32.3225H59.3866C59.3716 32.2092 59.3374 32.1075 59.2841 32.0175C59.2324 31.9275 59.1574 31.8567 59.0591 31.805C58.9607 31.7517 58.8341 31.725 58.6791 31.725C58.4657 31.725 58.2966 31.7717 58.1716 31.865C58.0466 31.9583 57.9841 32.0875 57.9841 32.2525C57.9841 32.3692 58.0066 32.4692 58.0516 32.5525C58.0982 32.6342 58.1782 32.7092 58.2916 32.7775C58.4066 32.8442 58.5649 32.9142 58.7666 32.9875C58.9116 33.0392 59.0524 33.0933 59.1891 33.15C59.3274 33.2067 59.4507 33.2742 59.5591 33.3525C59.6691 33.4292 59.7566 33.525 59.8216 33.64C59.8866 33.7533 59.9191 33.8942 59.9191 34.0625C59.9207 34.2692 59.8699 34.4467 59.7666 34.595C59.6649 34.7417 59.5207 34.8542 59.3341 34.9325C59.1491 35.0108 58.9316 35.05 58.6816 35.05ZM61.6796 35.05C61.4296 35.05 61.2071 35.01 61.0121 34.93C60.8188 34.85 60.6663 34.7258 60.5546 34.5575C60.4429 34.3892 60.3854 34.1717 60.3821 33.905H60.8421C60.8454 34.085 60.8871 34.2283 60.9671 34.335C61.0471 34.44 61.1513 34.5158 61.2796 34.5625C61.4096 34.6075 61.5488 34.63 61.6971 34.63C61.8688 34.63 62.0104 34.605 62.1221 34.555C62.2354 34.5033 62.3204 34.4358 62.3771 34.3525C62.4338 34.2692 62.4621 34.18 62.4621 34.085C62.4621 33.9483 62.4271 33.8375 62.3571 33.7525C62.2871 33.6675 62.1871 33.5967 62.0571 33.54C61.9271 33.4817 61.7729 33.4242 61.5946 33.3675C61.3979 33.3042 61.2188 33.2242 61.0571 33.1275C60.8971 33.0308 60.7696 32.9125 60.6746 32.7725C60.5796 32.6308 60.5321 32.4633 60.5321 32.27C60.5321 32.0567 60.5846 31.8792 60.6896 31.7375C60.7946 31.5942 60.9346 31.4867 61.1096 31.415C61.2863 31.3433 61.4804 31.3075 61.6921 31.3075C62.0088 31.3075 62.2671 31.3917 62.4671 31.56C62.6671 31.7267 62.7879 31.9808 62.8296 32.3225H62.3846C62.3696 32.2092 62.3354 32.1075 62.2821 32.0175C62.2304 31.9275 62.1554 31.8567 62.0571 31.805C61.9588 31.7517 61.8321 31.725 61.6771 31.725C61.4638 31.725 61.2946 31.7717 61.1696 31.865C61.0446 31.9583 60.9821 32.0875 60.9821 32.2525C60.9821 32.3692 61.0046 32.4692 61.0496 32.5525C61.0963 32.6342 61.1763 32.7092 61.2896 32.7775C61.4046 32.8442 61.5629 32.9142 61.7646 32.9875C61.9096 33.0392 62.0504 33.0933 62.1871 33.15C62.3254 33.2067 62.4488 33.2742 62.5571 33.3525C62.6671 33.4292 62.7546 33.525 62.8196 33.64C62.8846 33.7533 62.9171 33.8942 62.9171 34.0625C62.9188 34.2692 62.8679 34.4467 62.7646 34.595C62.6629 34.7417 62.5188 34.8542 62.3321 34.9325C62.1471 35.0108 61.9296 35.05 61.6796 35.05ZM67.6657 35.05C67.434 35.05 67.2257 35.0033 67.0407 34.91C66.8574 34.815 66.7124 34.6683 66.6057 34.47C66.499 34.27 66.4457 34.0133 66.4457 33.7V31.36H66.9132V33.6425C66.9132 33.8242 66.934 33.9775 66.9757 34.1025C67.0174 34.2258 67.074 34.3258 67.1457 34.4025C67.2174 34.4775 67.2982 34.5317 67.3882 34.565C67.4799 34.5983 67.574 34.615 67.6707 34.615C67.7624 34.615 67.8515 34.5983 67.9382 34.565C68.0265 34.5317 68.1057 34.4775 68.1757 34.4025C68.2457 34.3258 68.3007 34.2258 68.3407 34.1025C68.3824 33.9775 68.4032 33.8242 68.4032 33.6425V31.365H68.8707V33.7C68.8707 34.0133 68.8165 34.27 68.7082 34.47C68.5999 34.6683 68.4549 34.815 68.2732 34.91C68.0915 35.0033 67.889 35.05 67.6657 35.05ZM70.6738 35.05C70.4238 35.05 70.2013 35.01 70.0063 34.93C69.8129 34.85 69.6604 34.7258 69.5488 34.5575C69.4371 34.3892 69.3796 34.1717 69.3763 33.905H69.8363C69.8396 34.085 69.8813 34.2283 69.9613 34.335C70.0413 34.44 70.1454 34.5158 70.2738 34.5625C70.4038 34.6075 70.5429 34.63 70.6913 34.63C70.8629 34.63 71.0046 34.605 71.1163 34.555C71.2296 34.5033 71.3146 34.4358 71.3713 34.3525C71.4279 34.2692 71.4563 34.18 71.4563 34.085C71.4563 33.9483 71.4213 33.8375 71.3513 33.7525C71.2813 33.6675 71.1813 33.5967 71.0513 33.54C70.9213 33.4817 70.7671 33.4242 70.5888 33.3675C70.3921 33.3042 70.2129 33.2242 70.0513 33.1275C69.8913 33.0308 69.7638 32.9125 69.6688 32.7725C69.5738 32.6308 69.5263 32.4633 69.5263 32.27C69.5263 32.0567 69.5788 31.8792 69.6838 31.7375C69.7888 31.5942 69.9288 31.4867 70.1038 31.415C70.2804 31.3433 70.4746 31.3075 70.6863 31.3075C71.0029 31.3075 71.2613 31.3917 71.4613 31.56C71.6613 31.7267 71.7821 31.9808 71.8238 32.3225H71.3788C71.3638 32.2092 71.3296 32.1075 71.2763 32.0175C71.2246 31.9275 71.1496 31.8567 71.0513 31.805C70.9529 31.7517 70.8263 31.725 70.6713 31.725C70.4579 31.725 70.2888 31.7717 70.1638 31.865C70.0388 31.9583 69.9763 32.0875 69.9763 32.2525C69.9763 32.3692 69.9988 32.4692 70.0438 32.5525C70.0904 32.6342 70.1704 32.7092 70.2838 32.7775C70.3988 32.8442 70.5571 32.9142 70.7588 32.9875C70.9038 33.0392 71.0446 33.0933 71.1813 33.15C71.3196 33.2067 71.4429 33.2742 71.5513 33.3525C71.6613 33.4292 71.7488 33.525 71.8138 33.64C71.8788 33.7533 71.9112 33.8942 71.9112 34.0625C71.9129 34.2692 71.8621 34.4467 71.7588 34.595C71.6571 34.7417 71.5129 34.8542 71.3263 34.9325C71.1413 35.0108 70.9238 35.05 70.6738 35.05ZM72.5993 35V31.365H74.6868V31.7675H72.8618L73.0643 31.575V33.0275L72.8618 32.8925H74.5093V33.295H72.9318L73.0643 33.1475V34.83L72.8618 34.59H74.7943V35H72.5993Z" fill="black"/>
<path d="M119.472 18.0024C119.48 18.003 119.489 18.0018 119.498 18.0034C119.519 18.0072 119.542 18.0155 119.567 18.0229L119.617 18.0346C119.659 18.0449 119.699 18.0664 119.73 18.0961C119.758 18.1221 119.776 18.1505 119.788 18.1713C119.841 18.2449 119.861 18.3255 119.871 18.3862C119.886 18.477 119.901 18.5676 119.916 18.6576C119.92 18.682 119.926 18.7066 119.93 18.7309C119.933 18.7491 119.935 18.7674 119.938 18.7856C120.184 20.2733 120.4 21.6586 120.96 23.0463C120.978 23.0921 120.998 23.1368 121.018 23.1811C121.17 23.5021 121.336 23.7813 121.521 24.0258C121.965 24.5922 122.535 24.9902 123.185 25.2866C123.403 25.3864 123.631 25.4722 123.864 25.5512C124.581 25.7843 125.441 25.9671 126.485 26.1567C126.553 26.1689 126.685 26.1885 126.848 26.2133C126.973 26.2296 127.11 26.25 127.252 26.27C127.54 26.3103 127.856 26.3625 128.066 26.4448C128.128 26.4691 128.177 26.5165 128.204 26.5766C128.207 26.5828 128.209 26.5877 128.211 26.5922C128.211 26.5931 128.212 26.5942 128.213 26.5951C128.217 26.6016 128.243 26.6469 128.25 26.7065C128.251 26.7143 128.249 26.7218 128.249 26.7289C128.251 26.7716 128.245 26.8046 128.242 26.8159C128.24 26.8232 128.238 26.833 128.237 26.8373C128.236 26.8428 128.234 26.8491 128.232 26.8559C128.222 26.8993 128.2 26.9399 128.169 26.9721C128.077 27.0664 127.971 27.1135 127.854 27.1323C126.999 27.27 126.083 27.3964 125.188 27.5932C124.962 27.6441 124.738 27.6979 124.516 27.7563C123.779 27.9559 123.086 28.2177 122.488 28.5873C122.418 28.6309 122.35 28.6773 122.284 28.725C122.05 28.9012 121.84 29.0989 121.649 29.3188C121.287 29.7501 121.017 30.2636 120.807 30.8227C120.723 31.0439 120.649 31.2706 120.583 31.5004C120.575 31.5293 120.568 31.5585 120.56 31.5873C120.361 32.2966 120.23 33.0324 120.098 33.7241C120.063 33.9031 120.027 34.2054 119.979 34.5278C119.955 34.6839 119.929 34.8419 119.9 34.9809C119.873 35.1155 119.839 35.2501 119.795 35.35C119.75 35.4525 119.642 35.5103 119.533 35.4955C119.524 35.4949 119.515 35.4972 119.506 35.4955C119.487 35.492 119.467 35.4832 119.444 35.477L119.387 35.4643C119.345 35.4541 119.306 35.4325 119.274 35.4028C119.247 35.3769 119.228 35.3484 119.216 35.3276C119.163 35.254 119.143 35.1734 119.133 35.1127C119.117 35.0177 119.101 34.9227 119.085 34.8285C119.082 34.8083 119.077 34.7882 119.074 34.768C119.071 34.7495 119.068 34.7308 119.065 34.7123C118.819 33.2249 118.604 31.84 118.044 30.4526C118.025 30.4049 118.004 30.358 117.983 30.3119C117.83 29.99 117.663 29.7102 117.477 29.4653C117.118 29.0094 116.678 28.6619 116.179 28.3901C115.325 28.003 114.298 28.0864 113.488 28.5873C113.418 28.6309 113.35 28.6773 113.284 28.725C113.05 28.9012 112.84 29.0989 112.649 29.3188C112.287 29.7501 112.017 30.2636 111.807 30.8227C111.723 31.0439 111.649 31.2706 111.583 31.5004C111.575 31.5293 111.568 31.5585 111.56 31.5873C111.361 32.2966 111.23 33.0324 111.098 33.7241C111.063 33.9031 111.027 34.2054 110.979 34.5278C110.955 34.6839 110.929 34.8419 110.9 34.9809C110.873 35.1155 110.839 35.2501 110.795 35.35C110.75 35.4525 110.642 35.5103 110.533 35.4955C110.524 35.4949 110.515 35.4972 110.506 35.4955C110.487 35.492 110.467 35.4832 110.444 35.477L110.387 35.4643C110.345 35.4541 110.306 35.4325 110.274 35.4028C110.247 35.3769 110.228 35.3484 110.216 35.3276C110.163 35.254 110.143 35.1734 110.133 35.1127C110.117 35.0177 110.101 34.9227 110.085 34.8285C110.082 34.8083 110.077 34.7882 110.074 34.768C110.071 34.7495 110.068 34.7308 110.065 34.7123C109.819 33.2249 109.604 31.84 109.044 30.4526C109.025 30.4049 109.004 30.358 108.983 30.3119C108.83 29.99 108.663 29.7102 108.477 29.4653C108.118 29.0094 107.678 28.6619 107.179 28.3901C106.325 28.003 105.298 28.0864 104.488 28.5873C104.418 28.6309 104.35 28.6773 104.284 28.725C104.05 28.9012 103.84 29.0989 103.649 29.3188C103.287 29.7501 103.017 30.2636 102.807 30.8227C102.723 31.0439 102.649 31.2706 102.583 31.5004C102.575 31.5293 102.568 31.5585 102.56 31.5873C102.361 32.2966 102.23 33.0324 102.098 33.7241C102.063 33.9031 102.027 34.2054 101.979 34.5278C101.955 34.6839 101.929 34.8419 101.9 34.9809C101.873 35.1155 101.839 35.2501 101.795 35.35C101.75 35.4525 101.642 35.5103 101.533 35.4955C101.524 35.4949 101.515 35.4972 101.506 35.4955C101.487 35.492 101.467 35.4832 101.444 35.477L101.387 35.4643C101.345 35.4541 101.306 35.4325 101.274 35.4028C101.247 35.3769 101.228 35.3484 101.216 35.3276C101.163 35.254 101.143 35.1734 101.133 35.1127C101.117 35.0177 101.101 34.9227 101.085 34.8285C101.082 34.8083 101.077 34.7882 101.074 34.768C101.071 34.7495 101.068 34.7308 101.065 34.7123C100.819 33.2249 100.604 31.84 100.044 30.4526C100.025 30.4049 100.004 30.358 99.9834 30.3119C99.8304 29.99 99.6629 29.7102 99.4766 29.4653C99.0342 28.9028 98.4659 28.5074 97.8193 28.2123C97.5963 28.1106 97.3642 28.022 97.126 27.9418C96.4118 27.7109 95.5562 27.5305 94.5186 27.3422C94.4473 27.3293 94.3038 27.3075 94.1279 27.2807C94.0101 27.2655 93.8833 27.2474 93.752 27.2289C93.4643 27.1886 93.1477 27.1364 92.9375 27.0541C92.8764 27.0298 92.8268 26.9822 92.7998 26.9223C92.7965 26.9148 92.7934 26.9091 92.791 26.9037C92.7881 26.8988 92.7608 26.8531 92.7539 26.7924V26.7241C92.7562 26.7045 92.76 26.69 92.7617 26.683C92.7634 26.6759 92.7655 26.6661 92.7666 26.6616C92.768 26.6561 92.7699 26.6497 92.7715 26.643C92.7817 26.5996 92.8031 26.559 92.834 26.5268C92.9256 26.4324 93.0332 26.3854 93.1494 26.3666C94.0079 26.2285 94.9257 26.1006 95.8242 25.9028C96.0465 25.8525 96.2677 25.7992 96.4873 25.7416C97.2239 25.542 97.9179 25.2813 98.5156 24.9116C98.5898 24.8657 98.6603 24.8156 98.7295 24.7651C98.9216 24.6193 99.0992 24.46 99.2617 24.2846C99.6705 23.8326 99.969 23.2816 100.197 22.6762C100.547 21.7469 100.726 20.7195 100.906 19.7748C100.94 19.5959 100.977 19.2935 101.025 18.9711C101.049 18.815 101.075 18.657 101.104 18.518C101.131 18.3835 101.165 18.2488 101.209 18.1489C101.254 18.046 101.362 17.9872 101.472 18.0024C101.48 18.003 101.489 18.0018 101.498 18.0034C101.519 18.0072 101.542 18.0155 101.567 18.0229L101.617 18.0346C101.659 18.0449 101.699 18.0664 101.73 18.0961C101.758 18.1221 101.776 18.1505 101.788 18.1713C101.841 18.2449 101.861 18.3255 101.871 18.3862C101.886 18.477 101.901 18.5676 101.916 18.6576C101.92 18.682 101.926 18.7066 101.93 18.7309C101.933 18.7491 101.935 18.7674 101.938 18.7856C102.184 20.2733 102.4 21.6586 102.96 23.0463C102.978 23.0921 102.998 23.1368 103.018 23.1811C103.17 23.5021 103.336 23.7813 103.521 24.0258C103.883 24.4875 104.329 24.8369 104.833 25.1108C105.685 25.494 106.708 25.411 107.516 24.9116C107.59 24.8657 107.66 24.8156 107.729 24.7651C107.922 24.6193 108.099 24.46 108.262 24.2846C108.67 23.8326 108.969 23.2816 109.197 22.6762C109.547 21.7469 109.726 20.7195 109.906 19.7748C109.94 19.5959 109.977 19.2935 110.025 18.9711C110.049 18.815 110.075 18.657 110.104 18.518C110.131 18.3835 110.165 18.2488 110.209 18.1489C110.254 18.046 110.362 17.9872 110.472 18.0024C110.48 18.003 110.489 18.0018 110.498 18.0034C110.519 18.0072 110.542 18.0155 110.567 18.0229L110.617 18.0346C110.659 18.0449 110.699 18.0664 110.73 18.0961C110.758 18.1221 110.776 18.1505 110.788 18.1713C110.841 18.2449 110.861 18.3255 110.871 18.3862C110.886 18.477 110.901 18.5676 110.916 18.6576C110.92 18.682 110.926 18.7066 110.93 18.7309C110.933 18.7491 110.935 18.7674 110.938 18.7856C111.184 20.2733 111.4 21.6586 111.96 23.0463C111.978 23.0921 111.998 23.1368 112.018 23.1811C112.17 23.5021 112.336 23.7813 112.521 24.0258C112.883 24.4875 113.329 24.8369 113.833 25.1108C114.685 25.494 115.708 25.411 116.516 24.9116C116.59 24.8657 116.66 24.8156 116.729 24.7651C116.922 24.6193 117.099 24.46 117.262 24.2846C117.67 23.8326 117.969 23.2816 118.197 22.6762C118.547 21.7469 118.726 20.7195 118.906 19.7748C118.94 19.5959 118.977 19.2935 119.025 18.9711C119.049 18.815 119.075 18.657 119.104 18.518C119.131 18.3835 119.165 18.2488 119.209 18.1489C119.254 18.046 119.362 17.9872 119.472 18.0024Z" stroke="black" stroke-width="0.5" stroke-linecap="round"/>
<path d="M0.25 43H128.25" stroke="black" stroke-width="0.5" stroke-linecap="round"/>
<path d="M2.6025 53L1.7475 51.5175H1.0525L0.885 51.48L0.96 51.1725V51.0925H1.755C1.91 51.0925 2.03417 51.0608 2.1275 50.9975C2.22083 50.9325 2.2875 50.8475 2.3275 50.7425C2.36917 50.6375 2.39 50.5233 2.39 50.4C2.39 50.2633 2.3675 50.1492 2.3225 50.0575C2.2775 49.9642 2.20417 49.8942 2.1025 49.8475C2.00083 49.8008 1.865 49.7775 1.695 49.7775L1.0975 49.775L1.095 49.655L0.8825 49.365C0.959167 49.365 1.045 49.365 1.14 49.365C1.235 49.365 1.32833 49.365 1.42 49.365C1.51167 49.365 1.59083 49.365 1.6575 49.365C2.0625 49.365 2.36583 49.4492 2.5675 49.6175C2.76917 49.7842 2.87 50.0292 2.87 50.3525C2.87 50.4742 2.85667 50.595 2.83 50.715C2.80333 50.8333 2.75667 50.9442 2.69 51.0475C2.62333 51.1508 2.53167 51.2392 2.415 51.3125C2.29833 51.3842 2.15 51.4342 1.97 51.4625L1.9825 51.4025C2.04083 51.4008 2.08917 51.4058 2.1275 51.4175C2.1675 51.4292 2.2025 51.4508 2.2325 51.4825C2.26417 51.5142 2.29667 51.56 2.33 51.62L3.1275 53H2.6025ZM0.6525 53V49.365H1.1125V53H0.6525ZM3.69305 53V49.365H5.78055V49.7675H3.95555L4.15805 49.575V51.0275L3.95555 50.8925H5.60305V51.295H4.02555L4.15805 51.1475V52.83L3.95555 52.59H5.88805V53H3.69305ZM7.80109 53.0725C7.50776 53.0725 7.26109 52.9958 7.06109 52.8425C6.86276 52.6875 6.71276 52.4675 6.61109 52.1825C6.50943 51.8975 6.45859 51.5608 6.45859 51.1725C6.45859 50.7792 6.51193 50.4433 6.61859 50.165C6.72693 49.885 6.88609 49.6708 7.09609 49.5225C7.30609 49.3725 7.56443 49.2975 7.87109 49.2975C8.05776 49.2975 8.22609 49.3325 8.37609 49.4025C8.52776 49.4725 8.65359 49.5892 8.75359 49.7525C8.85359 49.9142 8.91859 50.1342 8.94859 50.4125H8.49109C8.47776 50.2775 8.44443 50.1592 8.39109 50.0575C8.33943 49.9558 8.26693 49.8767 8.17359 49.82C8.08193 49.7617 7.96776 49.7325 7.83109 49.7325C7.62109 49.7325 7.44943 49.7917 7.31609 49.91C7.18443 50.0283 7.08693 50.1958 7.02359 50.4125C6.96193 50.6275 6.93109 50.8808 6.93109 51.1725C6.93109 51.4775 6.96609 51.74 7.03609 51.96C7.10776 52.1783 7.20859 52.3458 7.33859 52.4625C7.46859 52.5792 7.62193 52.6375 7.79859 52.6375C7.95359 52.6375 8.08943 52.6167 8.20609 52.575C8.32276 52.5333 8.42193 52.4767 8.50359 52.405V51.54H7.85109V51.1075H8.93859L8.93359 52.63C8.82526 52.72 8.71359 52.7983 8.59859 52.865C8.48359 52.9317 8.36109 52.9825 8.23109 53.0175C8.10109 53.0542 7.95776 53.0725 7.80109 53.0725ZM9.63914 53V52.57H10.5041V50.0175C10.5041 49.9592 10.5158 49.9108 10.5391 49.8725C10.5641 49.8342 10.5958 49.8083 10.6341 49.795H9.63914V49.365H11.8491V49.795H10.9816V52.3475C10.9816 52.4042 10.9691 52.4525 10.9441 52.4925C10.9208 52.5308 10.89 52.5567 10.8516 52.57H11.8491V53H9.63914ZM13.7597 53.05C13.5097 53.05 13.2872 53.01 13.0922 52.93C12.8989 52.85 12.7464 52.7258 12.6347 52.5575C12.523 52.3892 12.4655 52.1717 12.4622 51.905H12.9222C12.9255 52.085 12.9672 52.2283 13.0472 52.335C13.1272 52.44 13.2314 52.5158 13.3597 52.5625C13.4897 52.6075 13.6289 52.63 13.7772 52.63C13.9489 52.63 14.0905 52.605 14.2022 52.555C14.3155 52.5033 14.4005 52.4358 14.4572 52.3525C14.5139 52.2692 14.5422 52.18 14.5422 52.085C14.5422 51.9483 14.5072 51.8375 14.4372 51.7525C14.3672 51.6675 14.2672 51.5967 14.1372 51.54C14.0072 51.4817 13.853 51.4242 13.6747 51.3675C13.478 51.3042 13.2989 51.2242 13.1372 51.1275C12.9772 51.0308 12.8497 50.9125 12.7547 50.7725C12.6597 50.6308 12.6122 50.4633 12.6122 50.27C12.6122 50.0567 12.6647 49.8792 12.7697 49.7375C12.8747 49.5942 13.0147 49.4867 13.1897 49.415C13.3664 49.3433 13.5605 49.3075 13.7722 49.3075C14.0889 49.3075 14.3472 49.3917 14.5472 49.56C14.7472 49.7267 14.868 49.9808 14.9097 50.3225H14.4647C14.4497 50.2092 14.4155 50.1075 14.3622 50.0175C14.3105 49.9275 14.2355 49.8567 14.1372 49.805C14.0389 49.7517 13.9122 49.725 13.7572 49.725C13.5439 49.725 13.3747 49.7717 13.2497 49.865C13.1247 49.9583 13.0622 50.0875 13.0622 50.2525C13.0622 50.3692 13.0847 50.4692 13.1297 50.5525C13.1764 50.6342 13.2564 50.7092 13.3697 50.7775C13.4847 50.8442 13.643 50.9142 13.8447 50.9875C13.9897 51.0392 14.1305 51.0933 14.2672 51.15C14.4055 51.2067 14.5289 51.2742 14.6372 51.3525C14.7472 51.4292 14.8347 51.525 14.8997 51.64C14.9647 51.7533 14.9972 51.8942 14.9972 52.0625C14.9989 52.2692 14.948 52.4467 14.8447 52.595C14.743 52.7417 14.5989 52.8542 14.4122 52.9325C14.2272 53.0108 14.0097 53.05 13.7597 53.05ZM16.5027 53V50.0125C16.5027 49.9542 16.5144 49.9058 16.5377 49.8675C16.5611 49.8292 16.5927 49.8033 16.6327 49.79H15.4902V49.365H17.9902V49.79H16.9777V53H16.5027ZM18.6833 53V49.365H20.7708V49.7675H18.9458L19.1483 49.575V51.0275L18.9458 50.8925H20.5933V51.295H19.0158L19.1483 51.1475V52.83L18.9458 52.59H20.8783V53H18.6833ZM23.5888 53L22.7338 51.5175H22.0388L21.8713 51.48L21.9463 51.1725V51.0925H22.7413C22.8963 51.0925 23.0205 51.0608 23.1138 50.9975C23.2072 50.9325 23.2738 50.8475 23.3138 50.7425C23.3555 50.6375 23.3763 50.5233 23.3763 50.4C23.3763 50.2633 23.3538 50.1492 23.3088 50.0575C23.2638 49.9642 23.1905 49.8942 23.0888 49.8475C22.9872 49.8008 22.8513 49.7775 22.6813 49.7775L22.0838 49.775L22.0813 49.655L21.8688 49.365C21.9455 49.365 22.0313 49.365 22.1263 49.365C22.2213 49.365 22.3147 49.365 22.4063 49.365C22.498 49.365 22.5772 49.365 22.6438 49.365C23.0488 49.365 23.3522 49.4492 23.5538 49.6175C23.7555 49.7842 23.8563 50.0292 23.8563 50.3525C23.8563 50.4742 23.843 50.595 23.8163 50.715C23.7897 50.8333 23.743 50.9442 23.6763 51.0475C23.6097 51.1508 23.518 51.2392 23.4013 51.3125C23.2847 51.3842 23.1363 51.4342 22.9563 51.4625L22.9688 51.4025C23.0272 51.4008 23.0755 51.4058 23.1138 51.4175C23.1538 51.4292 23.1888 51.4508 23.2188 51.4825C23.2505 51.5142 23.283 51.56 23.3163 51.62L24.1138 53H23.5888ZM21.6388 53V49.365H22.0988V53H21.6388ZM24.6794 53V49.365H26.7669V49.7675H24.9419L25.1444 49.575V51.0275L24.9419 50.8925H26.5894V51.295H25.0119L25.1444 51.1475V52.83L24.9419 52.59H26.8744V53H24.6794ZM28.0499 53L27.9374 52.565H28.4949C28.7183 52.565 28.9099 52.5117 29.0699 52.405C29.2299 52.2967 29.3524 52.1383 29.4374 51.93C29.5224 51.7217 29.5649 51.4667 29.5649 51.165C29.5649 50.8467 29.5241 50.5875 29.4424 50.3875C29.3624 50.1858 29.2424 50.0375 29.0824 49.9425C28.9241 49.8475 28.7274 49.8 28.4924 49.8H27.9174L28.0499 49.365H28.4374C28.9391 49.365 29.3316 49.5083 29.6149 49.795C29.8983 50.0817 30.0399 50.5367 30.0399 51.16C30.0399 51.5633 29.9716 51.9017 29.8349 52.175C29.6983 52.4483 29.5099 52.6542 29.2699 52.7925C29.0299 52.9308 28.7533 53 28.4399 53H28.0499ZM27.5849 53V49.365H28.0499V53H27.5849ZM34.746 53.05C34.496 53.05 34.2735 53.01 34.0785 52.93C33.8852 52.85 33.7327 52.7258 33.621 52.5575C33.5093 52.3892 33.4518 52.1717 33.4485 51.905H33.9085C33.9118 52.085 33.9535 52.2283 34.0335 52.335C34.1135 52.44 34.2177 52.5158 34.346 52.5625C34.476 52.6075 34.6152 52.63 34.7635 52.63C34.9352 52.63 35.0768 52.605 35.1885 52.555C35.3018 52.5033 35.3868 52.4358 35.4435 52.3525C35.5002 52.2692 35.5285 52.18 35.5285 52.085C35.5285 51.9483 35.4935 51.8375 35.4235 51.7525C35.3535 51.6675 35.2535 51.5967 35.1235 51.54C34.9935 51.4817 34.8393 51.4242 34.661 51.3675C34.4643 51.3042 34.2852 51.2242 34.1235 51.1275C33.9635 51.0308 33.836 50.9125 33.741 50.7725C33.646 50.6308 33.5985 50.4633 33.5985 50.27C33.5985 50.0567 33.651 49.8792 33.756 49.7375C33.861 49.5942 34.001 49.4867 34.176 49.415C34.3527 49.3433 34.5468 49.3075 34.7585 49.3075C35.0752 49.3075 35.3335 49.3917 35.5335 49.56C35.7335 49.7267 35.8543 49.9808 35.896 50.3225H35.451C35.436 50.2092 35.4018 50.1075 35.3485 50.0175C35.2968 49.9275 35.2218 49.8567 35.1235 49.805C35.0252 49.7517 34.8985 49.725 34.7435 49.725C34.5302 49.725 34.361 49.7717 34.236 49.865C34.111 49.9583 34.0485 50.0875 34.0485 50.2525C34.0485 50.3692 34.071 50.4692 34.116 50.5525C34.1627 50.6342 34.2427 50.7092 34.356 50.7775C34.471 50.8442 34.6293 50.9142 34.831 50.9875C34.976 51.0392 35.1168 51.0933 35.2535 51.15C35.3918 51.2067 35.5152 51.2742 35.6235 51.3525C35.7335 51.4292 35.821 51.525 35.886 51.64C35.951 51.7533 35.9835 51.8942 35.9835 52.0625C35.9852 52.2692 35.9343 52.4467 35.831 52.595C35.7293 52.7417 35.5852 52.8542 35.3985 52.9325C35.2135 53.0108 34.996 53.05 34.746 53.05ZM37.7341 53.05C37.5024 53.05 37.2941 53.0033 37.1091 52.91C36.9257 52.815 36.7807 52.6683 36.6741 52.47C36.5674 52.27 36.5141 52.0133 36.5141 51.7V49.36H36.9816V51.6425C36.9816 51.8242 37.0024 51.9775 37.0441 52.1025C37.0857 52.2258 37.1424 52.3258 37.2141 52.4025C37.2857 52.4775 37.3666 52.5317 37.4566 52.565C37.5482 52.5983 37.6424 52.615 37.7391 52.615C37.8307 52.615 37.9199 52.5983 38.0066 52.565C38.0949 52.5317 38.1741 52.4775 38.2441 52.4025C38.3141 52.3258 38.3691 52.2258 38.4091 52.1025C38.4507 51.9775 38.4716 51.8242 38.4716 51.6425V49.365H38.9391V51.7C38.9391 52.0133 38.8849 52.27 38.7766 52.47C38.6682 52.6683 38.5232 52.815 38.3416 52.91C38.1599 53.0033 37.9574 53.05 37.7341 53.05ZM40.2646 51.6825C40.2129 51.6825 40.1696 51.6675 40.1346 51.6375C40.1013 51.6058 40.0846 51.5642 40.0846 51.5125L39.9096 51.375L40.0871 51.255H40.8521C41.0304 51.255 41.1746 51.2258 41.2846 51.1675C41.3946 51.1075 41.4754 51.0217 41.5271 50.91C41.5788 50.7967 41.6046 50.66 41.6046 50.5C41.6046 50.3383 41.5763 50.2067 41.5196 50.105C41.4646 50.0017 41.3796 49.9258 41.2646 49.8775C41.1513 49.8275 41.0063 49.8025 40.8296 49.8025H40.0721L39.8546 49.365C39.9129 49.365 39.9854 49.365 40.0721 49.365C40.1604 49.365 40.2513 49.365 40.3446 49.365C40.4396 49.365 40.5288 49.365 40.6121 49.365C40.6954 49.365 40.7629 49.365 40.8146 49.365C41.2463 49.365 41.5663 49.4567 41.7746 49.64C41.9829 49.8233 42.0871 50.1017 42.0871 50.475C42.0871 50.6383 42.0638 50.7925 42.0171 50.9375C41.9721 51.0825 41.9004 51.2108 41.8021 51.3225C41.7038 51.4342 41.5754 51.5225 41.4171 51.5875C41.2588 51.6508 41.0663 51.6825 40.8396 51.6825H40.2646ZM39.6196 53V49.365H40.0871V53H39.6196ZM43.2627 51.6825C43.211 51.6825 43.1677 51.6675 43.1327 51.6375C43.0993 51.6058 43.0827 51.5642 43.0827 51.5125L42.9077 51.375L43.0852 51.255H43.8502C44.0285 51.255 44.1727 51.2258 44.2827 51.1675C44.3927 51.1075 44.4735 51.0217 44.5252 50.91C44.5768 50.7967 44.6027 50.66 44.6027 50.5C44.6027 50.3383 44.5743 50.2067 44.5177 50.105C44.4627 50.0017 44.3777 49.9258 44.2627 49.8775C44.1493 49.8275 44.0043 49.8025 43.8277 49.8025H43.0702L42.8527 49.365C42.911 49.365 42.9835 49.365 43.0702 49.365C43.1585 49.365 43.2493 49.365 43.3427 49.365C43.4377 49.365 43.5268 49.365 43.6102 49.365C43.6935 49.365 43.761 49.365 43.8127 49.365C44.2443 49.365 44.5643 49.4567 44.7727 49.64C44.981 49.8233 45.0852 50.1017 45.0852 50.475C45.0852 50.6383 45.0618 50.7925 45.0152 50.9375C44.9702 51.0825 44.8985 51.2108 44.8002 51.3225C44.7018 51.4342 44.5735 51.5225 44.4152 51.5875C44.2568 51.6508 44.0643 51.6825 43.8377 51.6825H43.2627ZM42.6177 53V49.365H43.0852V53H42.6177ZM45.6357 53V49.365H46.1057V52.7925L45.8607 52.565H47.8882V53H45.6357ZM48.6138 53V52.57H49.4788V50.0175C49.4788 49.9592 49.4904 49.9108 49.5138 49.8725C49.5388 49.8342 49.5704 49.8083 49.6088 49.795H48.6138V49.365H50.8238V49.795H49.9563V52.3475C49.9563 52.4042 49.9438 52.4525 49.9188 52.4925C49.8954 52.5308 49.8646 52.5567 49.8263 52.57H50.8238V53H48.6138ZM51.6618 53V49.365H53.7493V49.7675H51.9243L52.1268 49.575V51.0275L51.9243 50.8925H53.5718V51.295H51.9943L52.1268 51.1475V52.83L51.9243 52.59H53.8568V53H51.6618ZM56.5673 53L55.7123 51.5175H55.0173L54.8498 51.48L54.9248 51.1725V51.0925H55.7198C55.8748 51.0925 55.999 51.0608 56.0923 50.9975C56.1857 50.9325 56.2523 50.8475 56.2923 50.7425C56.334 50.6375 56.3548 50.5233 56.3548 50.4C56.3548 50.2633 56.3323 50.1492 56.2873 50.0575C56.2423 49.9642 56.169 49.8942 56.0673 49.8475C55.9657 49.8008 55.8298 49.7775 55.6598 49.7775L55.0623 49.775L55.0598 49.655L54.8473 49.365C54.924 49.365 55.0098 49.365 55.1048 49.365C55.1998 49.365 55.2932 49.365 55.3848 49.365C55.4765 49.365 55.5557 49.365 55.6223 49.365C56.0273 49.365 56.3307 49.4492 56.5323 49.6175C56.734 49.7842 56.8348 50.0292 56.8348 50.3525C56.8348 50.4742 56.8215 50.595 56.7948 50.715C56.7682 50.8333 56.7215 50.9442 56.6548 51.0475C56.5882 51.1508 56.4965 51.2392 56.3798 51.3125C56.2632 51.3842 56.1148 51.4342 55.9348 51.4625L55.9473 51.4025C56.0057 51.4008 56.054 51.4058 56.0923 51.4175C56.1323 51.4292 56.1673 51.4508 56.1973 51.4825C56.229 51.5142 56.2615 51.56 56.2948 51.62L57.0923 53H56.5673ZM54.6173 53V49.365H55.0773V53H54.6173Z" fill="black"/>
<path d="M86.695 53V49.365H88.7825V49.7675H86.9575L87.16 49.575V51.0275L86.9575 50.8925H88.605V51.295H87.0275L87.16 51.1475V52.83L86.9575 52.59H88.89V53H86.695ZM89.253 53L90.4305 49.365H91.0705L92.243 53H91.753L91.413 51.9075L91.6805 52.0975H89.873L90.048 51.69H91.5555L91.4055 51.8825L90.9605 50.435L90.7555 49.7025H90.7405L90.538 50.435L89.7455 53H89.253ZM94.5986 53L93.7436 51.5175H93.0486L92.8811 51.48L92.9561 51.1725V51.0925H93.7511C93.9061 51.0925 94.0303 51.0608 94.1236 50.9975C94.2169 50.9325 94.2836 50.8475 94.3236 50.7425C94.3653 50.6375 94.3861 50.5233 94.3861 50.4C94.3861 50.2633 94.3636 50.1492 94.3186 50.0575C94.2736 49.9642 94.2003 49.8942 94.0986 49.8475C93.9969 49.8008 93.8611 49.7775 93.6911 49.7775L93.0936 49.775L93.0911 49.655L92.8786 49.365C92.9553 49.365 93.0411 49.365 93.1361 49.365C93.2311 49.365 93.3244 49.365 93.4161 49.365C93.5078 49.365 93.5869 49.365 93.6536 49.365C94.0586 49.365 94.3619 49.4492 94.5636 49.6175C94.7653 49.7842 94.8661 50.0292 94.8661 50.3525C94.8661 50.4742 94.8528 50.595 94.8261 50.715C94.7994 50.8333 94.7528 50.9442 94.6861 51.0475C94.6194 51.1508 94.5278 51.2392 94.4111 51.3125C94.2944 51.3842 94.1461 51.4342 93.9661 51.4625L93.9786 51.4025C94.0369 51.4008 94.0853 51.4058 94.1236 51.4175C94.1636 51.4292 94.1986 51.4508 94.2286 51.4825C94.2603 51.5142 94.2928 51.56 94.3261 51.62L95.1236 53H94.5986ZM92.6486 53V49.365H93.1086V53H92.6486ZM96.5066 53V50.0125C96.5066 49.9542 96.5183 49.9058 96.5416 49.8675C96.565 49.8292 96.5966 49.8033 96.6366 49.79H95.4941V49.365H97.9941V49.79H96.9816V53H96.5066ZM100.44 53V49.365H100.907V53H100.44ZM98.5772 53V49.365H99.0447V53H98.5772ZM98.9147 51.345V50.9225H100.525L100.52 51.345H98.9147ZM104.701 53.4875L106.311 48.7725H106.776L105.166 53.4875H104.701ZM110.239 53L111.417 49.365H112.057L113.229 53H112.739L112.399 51.9075L112.667 52.0975H110.859L111.034 51.69H112.542L112.392 51.8825L111.947 50.435L111.742 49.7025H111.727L111.524 50.435L110.732 53H110.239ZM114.762 53.07C114.489 53.07 114.255 52.9917 114.06 52.835C113.865 52.6783 113.716 52.4567 113.612 52.17C113.509 51.8833 113.457 51.5458 113.457 51.1575C113.457 50.7825 113.511 50.4558 113.617 50.1775C113.726 49.8975 113.879 49.6808 114.077 49.5275C114.276 49.3725 114.509 49.295 114.777 49.295C115.017 49.295 115.223 49.3467 115.395 49.45C115.568 49.5517 115.702 49.7025 115.795 49.9025C115.89 50.1025 115.941 50.3508 115.947 50.6475H115.45C115.442 50.4508 115.413 50.2842 115.365 50.1475C115.318 50.0092 115.247 49.9042 115.152 49.8325C115.059 49.7608 114.937 49.725 114.785 49.725C114.598 49.725 114.442 49.7792 114.317 49.8875C114.192 49.9958 114.097 50.1567 114.032 50.37C113.969 50.5817 113.937 50.8433 113.937 51.155C113.937 51.62 114.01 51.9842 114.155 52.2475C114.302 52.5108 114.511 52.6425 114.782 52.6425C114.929 52.6425 115.05 52.6117 115.145 52.55C115.24 52.4867 115.312 52.4042 115.362 52.3025C115.412 52.1992 115.442 52.0875 115.452 51.9675H115.927C115.917 52.1475 115.881 52.3067 115.817 52.445C115.756 52.5817 115.672 52.6967 115.567 52.79C115.464 52.8817 115.344 52.9517 115.207 53C115.071 53.0467 114.922 53.07 114.762 53.07ZM117.493 53V50.0125C117.493 49.9542 117.505 49.9058 117.528 49.8675C117.551 49.8292 117.583 49.8033 117.623 49.79H116.48V49.365H118.98V49.79H117.968V53H117.493ZM119.624 53V52.57H120.489V50.0175C120.489 49.9592 120.5 49.9108 120.524 49.8725C120.549 49.8342 120.58 49.8083 120.619 49.795H119.624V49.365H121.834V49.795H120.966V52.3475C120.966 52.4042 120.954 52.4525 120.929 52.4925C120.905 52.5308 120.874 52.5567 120.836 52.57H121.834V53H119.624ZM123.409 53L122.319 49.365H122.849L123.549 51.925L123.712 52.555H123.744L123.907 51.925L124.604 49.365H125.134L124.047 53H123.409ZM125.67 53V49.365H127.757V49.7675H125.932L126.135 49.575V51.0275L125.932 50.8925H127.58V51.295H126.002L126.135 51.1475V52.83L125.932 52.59H127.865V53H125.67Z" fill="black"/>
</svg>
