<svg width="380" height="160" viewBox="0 0 380 160" fill="none" xmlns="http://www.w3.org/2000/svg">
<path d="M3.80953 10.1093C3.65695 10.1093 3.52898 10.065 3.42563 9.97637C3.32719 9.88285 3.27797 9.7598 3.27797 9.60723L2.76117 9.20117L3.28535 8.8468H5.54449C6.07113 8.8468 6.49688 8.76066 6.82172 8.5884C7.14656 8.41121 7.38527 8.15773 7.53785 7.82797C7.69043 7.49328 7.76672 7.08969 7.76672 6.61719C7.76672 6.13977 7.68305 5.75094 7.5157 5.4507C7.35328 5.14555 7.10227 4.9216 6.76266 4.77887C6.42797 4.63121 5.99977 4.55738 5.47805 4.55738H3.24105L2.59875 3.26539C2.77102 3.26539 2.98512 3.26539 3.24105 3.26539C3.50191 3.26539 3.77016 3.26539 4.04578 3.26539C4.32633 3.26539 4.58965 3.26539 4.83574 3.26539C5.08184 3.26539 5.28117 3.26539 5.43375 3.26539C6.70852 3.26539 7.65352 3.53609 8.26875 4.0775C8.88399 4.61891 9.1916 5.44086 9.1916 6.54336C9.1916 7.0257 9.1227 7.48098 8.98488 7.90918C8.85199 8.33738 8.64035 8.71637 8.34996 9.04613C8.05957 9.3759 7.68059 9.63676 7.21301 9.82871C6.74543 10.0157 6.17695 10.1093 5.50758 10.1093H3.80953ZM1.90477 14V3.26539H3.28535V14H1.90477ZM10.906 14V3.26539H17.0707V4.45402H11.6812L12.2792 3.88555V8.17496L11.6812 7.77629H16.5465V8.96492H11.8879L12.2792 8.52934V13.498L11.6812 12.7892H17.3881V14H10.906ZM22.1738 14V5.17754C22.1738 5.00527 22.2083 4.86254 22.2772 4.74934C22.3461 4.63613 22.4396 4.55984 22.5577 4.52047H19.1838V3.26539H26.5666V4.52047H23.5766V14H22.1738ZM28.4656 14V12.7302H31.02V5.1923C31.02 5.02004 31.0545 4.8773 31.1234 4.7641C31.1972 4.6509 31.2907 4.57461 31.4039 4.53523H28.4656V3.26539H34.992V4.53523H32.4302V12.0731C32.4302 12.2404 32.3932 12.3832 32.3194 12.5013C32.2505 12.6145 32.1595 12.6908 32.0463 12.7302H34.992V14H28.4656ZM39.881 14V5.17754C39.881 5.00527 39.9155 4.86254 39.9844 4.74934C40.0533 4.63613 40.1468 4.55984 40.2649 4.52047H36.891V3.26539H44.2738V4.52047H41.2838V14H39.881ZM49.436 14.2141C49.0915 14.2141 48.806 14.0984 48.5796 13.8671C48.3532 13.6309 48.24 13.3208 48.24 12.9369C48.24 12.5579 48.3532 12.2503 48.5796 12.014C48.806 11.7778 49.0915 11.6596 49.436 11.6596C49.7805 11.6596 50.066 11.7778 50.2924 12.014C50.5188 12.2503 50.632 12.5579 50.632 12.9369C50.632 13.3208 50.5188 13.6309 50.2924 13.8671C50.066 14.0984 49.7805 14.2141 49.436 14.2141ZM58.3413 14.1477C57.603 14.1477 56.9459 14.0295 56.3701 13.7933C55.7991 13.557 55.3488 13.1904 55.019 12.6932C54.6893 12.1961 54.5195 11.5538 54.5096 10.7663H55.868C55.8779 11.2979 56.0009 11.7212 56.2372 12.0362C56.4734 12.3462 56.7811 12.5702 57.16 12.708C57.5439 12.8409 57.9549 12.9073 58.393 12.9073C58.8999 12.9073 59.3183 12.8335 59.648 12.6859C59.9827 12.5333 60.2338 12.3339 60.4011 12.0879C60.5684 11.8418 60.6521 11.5784 60.6521 11.2979C60.6521 10.8943 60.5488 10.567 60.342 10.316C60.1353 10.065 59.84 9.85578 59.4561 9.68844C59.0722 9.51617 58.6169 9.34637 58.0903 9.17902C57.5095 8.99199 56.9804 8.75574 56.503 8.47027C56.0305 8.1848 55.6539 7.83535 55.3734 7.42191C55.0929 7.00355 54.9526 6.50891 54.9526 5.93797C54.9526 5.30797 55.1076 4.78379 55.4177 4.36543C55.7278 3.94215 56.1412 3.62469 56.658 3.41305C57.1797 3.20141 57.7531 3.09559 58.3782 3.09559C59.3134 3.09559 60.0763 3.34414 60.6669 3.84125C61.2575 4.33344 61.6143 5.08402 61.7374 6.09301H60.4232C60.3789 5.75832 60.278 5.45809 60.1205 5.1923C59.968 4.92652 59.7465 4.71734 59.4561 4.56476C59.1657 4.40727 58.7916 4.32852 58.3339 4.32852C57.7039 4.32852 57.2043 4.46633 56.8352 4.74195C56.4661 5.01758 56.2815 5.39902 56.2815 5.88629C56.2815 6.23082 56.3479 6.52613 56.4808 6.77223C56.6186 7.0134 56.8549 7.23488 57.1896 7.43668C57.5292 7.63355 57.9968 7.84027 58.5923 8.05684C59.0205 8.20941 59.4364 8.36937 59.84 8.53672C60.2485 8.70406 60.6127 8.9034 60.9327 9.13473C61.2575 9.36113 61.5159 9.64414 61.7079 9.98375C61.8998 10.3184 61.9958 10.7343 61.9958 11.2314C62.0007 11.8418 61.8506 12.3659 61.5454 12.804C61.2452 13.2371 60.8195 13.5693 60.2682 13.8007C59.7219 14.032 59.0796 14.1477 58.3413 14.1477ZM67.1432 14.2215C66.3656 14.2215 65.6913 14.0025 65.1203 13.5644C64.5494 13.1264 64.1089 12.489 63.7988 11.6523C63.4887 10.8106 63.3337 9.78441 63.3337 8.57363C63.3337 6.79191 63.6758 5.42609 64.3599 4.47617C65.049 3.52625 65.9767 3.05129 67.1432 3.05129C68.3195 3.05129 69.2473 3.52625 69.9265 4.47617C70.6107 5.42609 70.9528 6.79191 70.9528 8.57363C70.9528 9.78441 70.7977 10.8106 70.4876 11.6523C70.1825 12.489 69.7444 13.1264 69.1735 13.5644C68.6026 14.0025 67.9258 14.2215 67.1432 14.2215ZM67.1432 12.9369C67.8963 12.9369 68.4844 12.5825 68.9077 11.8737C69.3359 11.165 69.55 10.065 69.55 8.57363C69.55 7.10199 69.3359 6.02902 68.9077 5.35473C68.4844 4.67551 67.8963 4.3359 67.1432 4.3359C66.3951 4.3359 65.8069 4.67551 65.3787 5.35473C64.9554 6.02902 64.7438 7.10199 64.7438 8.57363C64.7438 10.065 64.9554 11.165 65.3787 11.8737C65.8069 12.5825 66.3951 12.9369 67.1432 12.9369ZM72.8222 14V3.26539H79.3412V4.45402H73.6343L74.2102 3.87816V8.35215L73.6712 7.95348H78.7137V9.14211H73.9813L74.2102 8.81727V14H72.8222ZM84.1491 14V5.17754C84.1491 5.00527 84.1835 4.86254 84.2524 4.74934C84.3213 4.63613 84.4148 4.55984 84.533 4.52047H81.159V3.26539H88.5418V4.52047H85.5518V14H84.1491ZM90.81 14L89.2153 3.26539H90.6697L91.4228 10.0354C91.4867 10.4981 91.5483 10.946 91.6073 11.3791C91.6664 11.8073 91.7205 12.2847 91.7697 12.8114H91.8214L92.2349 9.94684L92.9215 5.84937H94.494L95.1806 9.94684L95.5719 12.8114H95.631C95.6802 12.2847 95.7368 11.8073 95.8008 11.3791C95.8647 10.946 95.9263 10.4981 95.9853 10.0354L96.7458 3.26539H98.1928L96.6055 14H94.8927L94.1839 10.2495C94.0806 9.67859 93.9944 9.14457 93.9255 8.64746C93.8615 8.14543 93.7951 7.60895 93.7262 7.03801H93.6819C93.6179 7.60895 93.5515 8.14543 93.4826 8.64746C93.4137 9.14457 93.3275 9.67859 93.2242 10.2495L92.5302 14H90.81ZM98.1427 14L101.62 3.26539H103.51L106.973 14H105.526L104.521 10.7737L105.311 11.3348H99.9737L100.49 10.1314H104.942L104.499 10.6999L103.185 6.42523L102.58 4.26207H102.535L101.937 6.42523L99.5971 14H98.1427ZM113.929 14L111.404 9.62199H109.351L108.857 9.51125L109.078 8.60316V8.36691H111.426C111.884 8.36691 112.25 8.2734 112.526 8.08637C112.802 7.89441 112.999 7.6434 113.117 7.33332C113.24 7.02324 113.301 6.68609 113.301 6.32187C113.301 5.91828 113.235 5.58113 113.102 5.31043C112.969 5.0348 112.752 4.82809 112.452 4.69027C112.152 4.55246 111.751 4.48355 111.249 4.48355L109.484 4.47617L109.477 4.1218L108.849 3.26539C109.076 3.26539 109.329 3.26539 109.61 3.26539C109.89 3.26539 110.166 3.26539 110.437 3.26539C110.707 3.26539 110.941 3.26539 111.138 3.26539C112.334 3.26539 113.23 3.51394 113.825 4.01105C114.421 4.50324 114.719 5.22676 114.719 6.1816C114.719 6.5409 114.679 6.89773 114.601 7.25211C114.522 7.60156 114.384 7.92887 114.187 8.23402C113.99 8.53918 113.72 8.80004 113.375 9.0166C113.031 9.22824 112.593 9.3759 112.061 9.45957L112.098 9.28238C112.27 9.27746 112.413 9.29223 112.526 9.32668C112.644 9.36113 112.748 9.42512 112.836 9.51863C112.93 9.61215 113.026 9.7475 113.124 9.92469L115.479 14H113.929ZM108.17 14V3.26539H109.529V14H108.17ZM117.149 14V3.26539H123.314V4.45402H117.925L118.523 3.88555V8.17496L117.925 7.77629H122.79V8.96492H118.131L118.523 8.52934V13.498L117.925 12.7892H123.631V14H117.149Z" fill="black"/>
<path d="M303.22 14.1477C302.481 14.1477 301.824 14.0295 301.248 13.7933C300.678 13.557 300.227 13.1904 299.897 12.6932C299.568 12.1961 299.398 11.5538 299.388 10.7663H300.746C300.756 11.2979 300.879 11.7212 301.116 12.0362C301.352 12.3462 301.659 12.5702 302.038 12.708C302.422 12.8409 302.833 12.9073 303.271 12.9073C303.778 12.9073 304.197 12.8335 304.526 12.6859C304.861 12.5333 305.112 12.3339 305.279 12.0879C305.447 11.8418 305.53 11.5784 305.53 11.2979C305.53 10.8943 305.427 10.567 305.22 10.316C305.014 10.065 304.718 9.85578 304.334 9.68844C303.951 9.51617 303.495 9.34637 302.969 9.17902C302.388 8.99199 301.859 8.75574 301.381 8.47027C300.909 8.1848 300.532 7.83535 300.252 7.42191C299.971 7.00355 299.831 6.50891 299.831 5.93797C299.831 5.30797 299.986 4.78379 300.296 4.36543C300.606 3.94215 301.02 3.62469 301.536 3.41305C302.058 3.20141 302.631 3.09559 303.257 3.09559C304.192 3.09559 304.955 3.34414 305.545 3.84125C306.136 4.33344 306.493 5.08402 306.616 6.09301H305.302C305.257 5.75832 305.156 5.45809 304.999 5.1923C304.846 4.92652 304.625 4.71734 304.334 4.56476C304.044 4.40727 303.67 4.32852 303.212 4.32852C302.582 4.32852 302.083 4.46633 301.714 4.74195C301.344 5.01758 301.16 5.39902 301.16 5.88629C301.16 6.23082 301.226 6.52613 301.359 6.77223C301.497 7.0134 301.733 7.23488 302.068 7.43668C302.408 7.63355 302.875 7.84027 303.471 8.05684C303.899 8.20941 304.315 8.36937 304.718 8.53672C305.127 8.70406 305.491 8.9034 305.811 9.13473C306.136 9.36113 306.394 9.64414 306.586 9.98375C306.778 10.3184 306.874 10.7343 306.874 11.2314C306.879 11.8418 306.729 12.3659 306.424 12.804C306.124 13.2371 305.698 13.5693 305.147 13.8007C304.6 14.032 303.958 14.1477 303.22 14.1477ZM308.758 14V12.7302H311.313V5.1923C311.313 5.02004 311.347 4.8773 311.416 4.7641C311.49 4.6509 311.584 4.57461 311.697 4.53523H308.758V3.26539H315.285V4.53523H312.723V12.0731C312.723 12.2404 312.686 12.3832 312.612 12.5013C312.543 12.6145 312.452 12.6908 312.339 12.7302H315.285V14H308.758ZM317.435 14V3.26539H319.199L322.071 9.96898L323.142 12.553H323.193L322.987 9.92469V3.26539H324.316V14H322.551L319.701 7.3407L318.646 4.77887H318.587L318.771 7.45145V14H317.435ZM329.817 14.2067C329.01 14.2067 328.319 13.9754 327.743 13.5127C327.167 13.0501 326.726 12.3955 326.421 11.5489C326.116 10.7023 325.964 9.70566 325.964 8.55887C325.964 7.45144 326.121 6.48676 326.436 5.6648C326.756 4.83793 327.209 4.19809 327.794 3.74527C328.38 3.28754 329.069 3.05867 329.862 3.05867C330.57 3.05867 331.178 3.21125 331.685 3.51641C332.197 3.81664 332.591 4.26207 332.866 4.85269C333.147 5.44332 333.297 6.17668 333.317 7.05277H331.848C331.823 6.47199 331.739 5.9798 331.597 5.57621C331.459 5.16769 331.25 4.85762 330.969 4.64598C330.693 4.43434 330.332 4.32852 329.884 4.32852C329.333 4.32852 328.872 4.48848 328.503 4.8084C328.134 5.12832 327.854 5.60328 327.662 6.23328C327.475 6.85836 327.381 7.63109 327.381 8.55148C327.381 9.92469 327.595 11.0001 328.023 11.7778C328.456 12.5554 329.074 12.9443 329.876 12.9443C330.31 12.9443 330.666 12.8532 330.947 12.6711C331.228 12.4841 331.442 12.2404 331.589 11.9402C331.737 11.635 331.826 11.3053 331.855 10.9509H333.258C333.228 11.4825 333.12 11.9525 332.933 12.361C332.751 12.7646 332.505 13.1042 332.195 13.3798C331.889 13.6505 331.535 13.8573 331.132 14C330.728 14.1378 330.29 14.2067 329.817 14.2067ZM335.467 14V3.26539H341.631V4.45402H336.242L336.84 3.88555V8.17496L336.242 7.77629H341.107V8.96492H336.449L336.84 8.52934V13.498L336.242 12.7892H341.949V14H335.467ZM352.849 14V3.26539H354.614L357.486 9.96898L358.556 12.553H358.608L358.401 9.92469V3.26539H359.73V14H357.966L355.116 7.3407L354.06 4.77887H354.001L354.186 7.45145V14H352.849ZM365.143 14.2215C364.366 14.2215 363.691 14.0025 363.12 13.5644C362.549 13.1264 362.109 12.489 361.799 11.6523C361.489 10.8106 361.334 9.78441 361.334 8.57363C361.334 6.79191 361.676 5.42609 362.36 4.47617C363.049 3.52625 363.977 3.05129 365.143 3.05129C366.32 3.05129 367.247 3.52625 367.927 4.47617C368.611 5.42609 368.953 6.79191 368.953 8.57363C368.953 9.78441 368.798 10.8106 368.488 11.6523C368.182 12.489 367.744 13.1264 367.173 13.5644C366.603 14.0025 365.926 14.2215 365.143 14.2215ZM365.143 12.9369C365.896 12.9369 366.484 12.5825 366.908 11.8737C367.336 11.165 367.55 10.065 367.55 8.57363C367.55 7.10199 367.336 6.02902 366.908 5.35473C366.484 4.67551 365.896 4.3359 365.143 4.3359C364.395 4.3359 363.807 4.67551 363.379 5.35473C362.955 6.02902 362.744 7.10199 362.744 8.57363C362.744 10.065 362.955 11.165 363.379 11.8737C363.807 12.5825 364.395 12.9369 365.143 12.9369ZM371.103 14L369.508 3.26539H370.962L371.716 10.0354C371.78 10.4981 371.841 10.946 371.9 11.3791C371.959 11.8073 372.013 12.2847 372.063 12.8114H372.114L372.528 9.94684L373.214 5.84937H374.787L375.473 9.94684L375.865 12.8114H375.924C375.973 12.2847 376.03 11.8073 376.094 11.3791C376.158 10.946 376.219 10.4981 376.278 10.0354L377.039 3.26539H378.486L376.898 14H375.185L374.477 10.2495C374.373 9.67859 374.287 9.14457 374.218 8.64746C374.154 8.14543 374.088 7.60895 374.019 7.03801H373.975C373.911 7.60895 373.844 8.14543 373.775 8.64746C373.706 9.14457 373.62 9.67859 373.517 10.2495L372.823 14H371.103Z" fill="black"/>
<path d="M0.738281 31.7656H378.738" stroke="black" stroke-width="1.47656" stroke-linecap="round"/>
<ellipse cx="39.0248" cy="21.2722" rx="39.0248" ry="21.2722" transform="matrix(0.913289 -0.407313 0.407296 0.913296 0.738281 75.228)" stroke="black" stroke-width="1.47656" stroke-linecap="round"/>
<path d="M127.282 66.6442C126.474 66.6442 125.783 66.4129 125.207 65.9502C124.631 65.4876 124.191 64.833 123.885 63.9864C123.58 63.1398 123.428 62.1432 123.428 60.9964C123.428 59.8889 123.585 58.9243 123.9 58.1023C124.22 57.2754 124.673 56.6356 125.259 56.1828C125.844 55.725 126.533 55.4962 127.326 55.4962C128.035 55.4962 128.642 55.6487 129.149 55.9539C129.661 56.2541 130.055 56.6996 130.331 57.2902C130.611 57.8808 130.761 58.6142 130.781 59.4903H129.312C129.287 58.9095 129.204 58.4173 129.061 58.0137C128.923 57.6052 128.714 57.2951 128.433 57.0835C128.158 56.8718 127.796 56.766 127.348 56.766C126.797 56.766 126.337 56.926 125.967 57.2459C125.598 57.5658 125.318 58.0408 125.126 58.6708C124.939 59.2959 124.845 60.0686 124.845 60.989C124.845 62.3622 125.059 63.4376 125.488 64.2153C125.921 64.9929 126.538 65.3818 127.341 65.3818C127.774 65.3818 128.131 65.2907 128.411 65.1086C128.692 64.9216 128.906 64.6779 129.053 64.3777C129.201 64.0725 129.29 63.7428 129.319 63.3884H130.722C130.692 63.92 130.584 64.39 130.397 64.7985C130.215 65.2021 129.969 65.5417 129.659 65.8173C129.354 66.088 128.999 66.2948 128.596 66.4375C128.192 66.5753 127.754 66.6442 127.282 66.6442ZM132.931 66.4375V55.7029H139.096V56.8915H133.706L134.304 56.323V60.6125L133.706 60.2138H138.571V61.4024H133.913L134.304 60.9668V65.9355L133.706 65.2267H139.413V66.4375H132.931ZM147.418 66.4375L144.893 62.0595H142.84L142.346 61.9487L142.567 61.0407V60.8044H144.915C145.373 60.8044 145.739 60.7109 146.015 60.5239C146.291 60.3319 146.487 60.0809 146.606 59.7708C146.729 59.4607 146.79 59.1236 146.79 58.7594C146.79 58.3558 146.724 58.0186 146.591 57.7479C146.458 57.4723 146.241 57.2656 145.941 57.1278C145.641 56.99 145.24 56.9211 144.738 56.9211L142.973 56.9137L142.966 56.5593L142.338 55.7029C142.565 55.7029 142.818 55.7029 143.099 55.7029C143.379 55.7029 143.655 55.7029 143.926 55.7029C144.196 55.7029 144.43 55.7029 144.627 55.7029C145.823 55.7029 146.719 55.9514 147.314 56.4486C147.91 56.9407 148.208 57.6643 148.208 58.6191C148.208 58.9784 148.168 59.3352 148.09 59.6896C148.011 60.0391 147.873 60.3664 147.676 60.6715C147.479 60.9767 147.209 61.2375 146.864 61.4541C146.519 61.6657 146.081 61.8134 145.55 61.8971L145.587 61.7199C145.759 61.715 145.902 61.7297 146.015 61.7642C146.133 61.7986 146.236 61.8626 146.325 61.9561C146.419 62.0496 146.515 62.185 146.613 62.3622L148.968 66.4375H147.418ZM141.659 66.4375V55.7029H143.018V66.4375H141.659ZM153.052 66.4375V57.615C153.052 57.4428 153.087 57.3 153.156 57.1868C153.225 57.0736 153.318 56.9973 153.436 56.958H150.062V55.7029H157.445V56.958H154.455V66.4375H153.052ZM159.344 66.4375V65.1677H161.899V57.6298C161.899 57.4575 161.933 57.3148 162.002 57.2016C162.076 57.0884 162.169 57.0121 162.283 56.9727H159.344V55.7029H165.871V56.9727H163.309V64.5106C163.309 64.6779 163.272 64.8207 163.198 64.9388C163.129 65.052 163.038 65.1283 162.925 65.1677H165.871V66.4375H159.344ZM168.286 66.4375V55.7029H174.805V56.8915H169.098L169.674 56.3157V60.7896L169.135 60.391H174.178V61.5796H169.445L169.674 61.2548V66.4375H168.286ZM177.051 66.4375V65.1677H179.606V57.6298C179.606 57.4575 179.64 57.3148 179.709 57.2016C179.783 57.0884 179.877 57.0121 179.99 56.9727H177.051V55.7029H183.578V56.9727H181.016V64.5106C181.016 64.6779 180.979 64.8207 180.905 64.9388C180.836 65.052 180.745 65.1283 180.632 65.1677H183.578V66.4375H177.051ZM186.053 66.4375V55.7029H192.217V56.8915H186.828L187.426 56.323V60.6125L186.828 60.2138H191.693V61.4024H187.035L187.426 60.9668V65.9355L186.828 65.2267H192.535V66.4375H186.053ZM196.006 66.4375L195.674 65.1529H197.32C197.98 65.1529 198.546 64.9954 199.018 64.6804C199.491 64.3605 199.853 63.8929 200.104 63.2777C200.355 62.6624 200.48 61.9094 200.48 61.0185C200.48 60.0784 200.36 59.3131 200.119 58.7225C199.882 58.1269 199.528 57.6889 199.055 57.4083C198.588 57.1278 198.007 56.9875 197.313 56.9875H195.615L196.006 55.7029H197.151C198.632 55.7029 199.791 56.1262 200.628 56.9727C201.465 57.8193 201.883 59.163 201.883 61.0037C201.883 62.1948 201.681 63.194 201.278 64.0012C200.874 64.8084 200.318 65.4162 199.609 65.8247C198.9 66.2332 198.083 66.4375 197.158 66.4375H196.006ZM194.633 66.4375V55.7029H196.006V66.4375H194.633ZM212.554 66.4375V55.7029H219.073V56.8915H213.367L213.942 56.3157V60.7896L213.403 60.391H218.446V61.5796H213.713L213.942 61.2548V66.4375H212.554ZM224.583 66.659C223.805 66.659 223.131 66.44 222.56 66.0019C221.989 65.5639 221.548 64.9265 221.238 64.0898C220.928 63.2481 220.773 62.2219 220.773 61.0111C220.773 59.2294 221.115 57.8636 221.799 56.9137C222.488 55.9637 223.416 55.4888 224.583 55.4888C225.759 55.4888 226.687 55.9637 227.366 56.9137C228.05 57.8636 228.392 59.2294 228.392 61.0111C228.392 62.2219 228.237 63.2481 227.927 64.0898C227.622 64.9265 227.184 65.5639 226.613 66.0019C226.042 66.44 225.365 66.659 224.583 66.659ZM224.583 65.3744C225.336 65.3744 225.924 65.02 226.347 64.3112C226.775 63.6025 226.989 62.5025 226.989 61.0111C226.989 59.5395 226.775 58.4665 226.347 57.7922C225.924 57.113 225.336 56.7734 224.583 56.7734C223.834 56.7734 223.246 57.113 222.818 57.7922C222.395 58.4665 222.183 59.5395 222.183 61.0111C222.183 62.5025 222.395 63.6025 222.818 64.3112C223.246 65.02 223.834 65.3744 224.583 65.3744ZM235.954 66.4375L233.429 62.0595H231.376L230.882 61.9487L231.103 61.0407V60.8044H233.451C233.909 60.8044 234.275 60.7109 234.551 60.5239C234.827 60.3319 235.024 60.0809 235.142 59.7708C235.265 59.4607 235.326 59.1236 235.326 58.7594C235.326 58.3558 235.26 58.0186 235.127 57.7479C234.994 57.4723 234.777 57.2656 234.477 57.1278C234.177 56.99 233.776 56.9211 233.274 56.9211L231.509 56.9137L231.502 56.5593L230.874 55.7029C231.101 55.7029 231.354 55.7029 231.635 55.7029C231.915 55.7029 232.191 55.7029 232.462 55.7029C232.732 55.7029 232.966 55.7029 233.163 55.7029C234.359 55.7029 235.255 55.9514 235.85 56.4486C236.446 56.9407 236.744 57.6643 236.744 58.6191C236.744 58.9784 236.704 59.3352 236.626 59.6896C236.547 60.0391 236.409 60.3664 236.212 60.6715C236.015 60.9767 235.745 61.2375 235.4 61.4541C235.056 61.6657 234.617 61.8134 234.086 61.8971L234.123 61.7199C234.295 61.715 234.438 61.7297 234.551 61.7642C234.669 61.7986 234.773 61.8626 234.861 61.9561C234.955 62.0496 235.051 62.185 235.149 62.3622L237.504 66.4375H235.954ZM230.195 66.4375V55.7029H231.554V66.4375H230.195ZM125.834 79.5468C125.682 79.5468 125.554 79.5025 125.451 79.4139C125.352 79.3204 125.303 79.1973 125.303 79.0447L124.786 78.6387L125.31 78.2843H127.569C128.096 78.2843 128.522 78.1982 128.847 78.0259C129.172 77.8487 129.41 77.5952 129.563 77.2655C129.715 76.9308 129.792 76.5272 129.792 76.0547C129.792 75.5773 129.708 75.1884 129.541 74.8882C129.378 74.583 129.127 74.3591 128.788 74.2164C128.453 74.0687 128.025 73.9949 127.503 73.9949H125.266L124.624 72.7029C124.796 72.7029 125.01 72.7029 125.266 72.7029C125.527 72.7029 125.795 72.7029 126.071 72.7029C126.351 72.7029 126.615 72.7029 126.861 72.7029C127.107 72.7029 127.306 72.7029 127.459 72.7029C128.733 72.7029 129.678 72.9736 130.294 73.515C130.909 74.0564 131.217 74.8784 131.217 75.9809C131.217 76.4632 131.148 76.9185 131.01 77.3467C130.877 77.7749 130.665 78.1539 130.375 78.4836C130.085 78.8134 129.706 79.0743 129.238 79.2662C128.77 79.4532 128.202 79.5468 127.533 79.5468H125.834ZM123.93 83.4375V72.7029H125.31V83.4375H123.93ZM132.931 83.4375V72.7029H139.096V73.8915H133.706L134.304 73.323V77.6125L133.706 77.2138H138.571V78.4024H133.913L134.304 77.9668V82.9355L133.706 82.2267H139.413V83.4375H132.931ZM147.418 83.4375L144.893 79.0595H142.84L142.346 78.9487L142.567 78.0407V77.8044H144.915C145.373 77.8044 145.739 77.7109 146.015 77.5239C146.291 77.3319 146.487 77.0809 146.606 76.7708C146.729 76.4607 146.79 76.1236 146.79 75.7594C146.79 75.3558 146.724 75.0186 146.591 74.7479C146.458 74.4723 146.241 74.2656 145.941 74.1278C145.641 73.99 145.24 73.9211 144.738 73.9211L142.973 73.9137L142.966 73.5593L142.338 72.7029C142.565 72.7029 142.818 72.7029 143.099 72.7029C143.379 72.7029 143.655 72.7029 143.926 72.7029C144.196 72.7029 144.43 72.7029 144.627 72.7029C145.823 72.7029 146.719 72.9514 147.314 73.4486C147.91 73.9407 148.208 74.6643 148.208 75.6191C148.208 75.9784 148.168 76.3352 148.09 76.6896C148.011 77.0391 147.873 77.3664 147.676 77.6715C147.479 77.9767 147.209 78.2375 146.864 78.4541C146.519 78.6657 146.081 78.8134 145.55 78.8971L145.587 78.7199C145.759 78.715 145.902 78.7297 146.015 78.7642C146.133 78.7986 146.236 78.8626 146.325 78.9561C146.419 79.0496 146.515 79.185 146.613 79.3622L148.968 83.4375H147.418ZM141.659 83.4375V72.7029H143.018V83.4375H141.659ZM153.805 83.5852C153.067 83.5852 152.41 83.467 151.834 83.2308C151.263 82.9945 150.813 82.6279 150.483 82.1307C150.153 81.6336 149.984 80.9913 149.974 80.2038H151.332C151.342 80.7354 151.465 81.1587 151.701 81.4737C151.938 81.7837 152.245 82.0077 152.624 82.1455C153.008 82.2784 153.419 82.3448 153.857 82.3448C154.364 82.3448 154.782 82.271 155.112 82.1234C155.447 81.9708 155.698 81.7714 155.865 81.5254C156.033 81.2793 156.116 81.0159 156.116 80.7354C156.116 80.3318 156.013 80.0045 155.806 79.7535C155.599 79.5025 155.304 79.2933 154.92 79.1259C154.536 78.9537 154.081 78.7839 153.554 78.6165C152.974 78.4295 152.445 78.1932 151.967 77.9078C151.495 77.6223 151.118 77.2729 150.838 76.8594C150.557 76.4411 150.417 75.9464 150.417 75.3755C150.417 74.7455 150.572 74.2213 150.882 73.8029C151.192 73.3796 151.605 73.0622 152.122 72.8505C152.644 72.6389 153.217 72.5331 153.842 72.5331C154.778 72.5331 155.54 72.7816 156.131 73.2787C156.722 73.7709 157.078 74.5215 157.202 75.5305H155.887C155.843 75.1958 155.742 74.8956 155.585 74.6298C155.432 74.364 155.211 74.1548 154.92 74.0023C154.63 73.8448 154.256 73.766 153.798 73.766C153.168 73.766 152.668 73.9038 152.299 74.1795C151.93 74.4551 151.746 74.8365 151.746 75.3238C151.746 75.6683 151.812 75.9636 151.945 76.2097C152.083 76.4509 152.319 76.6724 152.654 76.8742C152.993 77.0711 153.461 77.2778 154.056 77.4943C154.485 77.6469 154.901 77.8069 155.304 77.9742C155.713 78.1416 156.077 78.3409 156.397 78.5722C156.722 78.7986 156.98 79.0816 157.172 79.4212C157.364 79.7559 157.46 80.1718 157.46 80.6689C157.465 81.2793 157.315 81.8034 157.01 82.2415C156.709 82.6746 156.284 83.0068 155.732 83.2382C155.186 83.4695 154.544 83.5852 153.805 83.5852ZM162.607 83.659C161.83 83.659 161.155 83.44 160.584 83.0019C160.014 82.5639 159.573 81.9265 159.263 81.0898C158.953 80.2481 158.798 79.2219 158.798 78.0111C158.798 76.2294 159.14 74.8636 159.824 73.9137C160.513 72.9637 161.441 72.4888 162.607 72.4888C163.784 72.4888 164.711 72.9637 165.391 73.9137C166.075 74.8636 166.417 76.2294 166.417 78.0111C166.417 79.2219 166.262 80.2481 165.952 81.0898C165.647 81.9265 165.209 82.5639 164.638 83.0019C164.067 83.44 163.39 83.659 162.607 83.659ZM162.607 82.3744C163.36 82.3744 163.949 82.02 164.372 81.3112C164.8 80.6025 165.014 79.5025 165.014 78.0111C165.014 76.5395 164.8 75.4665 164.372 74.7922C163.949 74.113 163.36 73.7734 162.607 73.7734C161.859 73.7734 161.271 74.113 160.843 74.7922C160.42 75.4665 160.208 76.5395 160.208 78.0111C160.208 79.5025 160.42 80.6025 160.843 81.3112C161.271 82.02 161.859 82.3744 162.607 82.3744ZM168.021 83.4375V72.7029H169.785L172.657 79.4065L173.727 81.9905H173.779L173.572 79.3622V72.7029H174.901V83.4375H173.137L170.287 76.7782L169.231 74.2164H169.172L169.357 76.8889V83.4375H168.021ZM175.9 83.4375L179.377 72.7029H181.267L184.729 83.4375H183.282L182.278 80.2112L183.068 80.7723H177.731L178.247 79.5689H182.699L182.256 80.1374L180.942 75.8627L180.337 73.6996H180.292L179.694 75.8627L177.354 83.4375H175.9ZM185.964 83.4375V72.7029H187.352V82.8247L186.628 82.1529H192.616V83.4375H185.964ZM202.46 83.4375L205.938 72.7029H207.828L211.29 83.4375H209.843L208.839 80.2112L209.629 80.7723H204.291L204.808 79.5689H209.26L208.817 80.1374L207.503 75.8627L206.898 73.6996H206.853L206.255 75.8627L203.915 83.4375H202.46ZM212.289 83.4375V72.7029H214.053L216.925 79.4065L217.996 81.9905H218.047L217.84 79.3622V72.7029H219.169V83.4375H217.405L214.555 76.7782L213.499 74.2164H213.44L213.625 76.8889V83.4375H212.289ZM222.567 83.4375L222.235 82.1529H223.881C224.541 82.1529 225.107 81.9954 225.579 81.6804C226.052 81.3605 226.414 80.8929 226.665 80.2777C226.916 79.6624 227.041 78.9094 227.041 78.0185C227.041 77.0784 226.921 76.3131 226.679 75.7225C226.443 75.1269 226.089 74.6889 225.616 74.4083C225.149 74.1278 224.568 73.9875 223.874 73.9875H222.176L222.567 72.7029H223.711C225.193 72.7029 226.352 73.1262 227.189 73.9727C228.025 74.8193 228.444 76.163 228.444 78.0037C228.444 79.1948 228.242 80.194 227.838 81.0012C227.435 81.8084 226.879 82.4162 226.17 82.8247C225.461 83.2332 224.644 83.4375 223.719 83.4375H222.567ZM221.194 83.4375V72.7029H222.567V83.4375H221.194ZM123.893 100.438V89.7029H127.09C127.961 89.7029 128.652 89.821 129.164 90.0573C129.676 90.2935 130.043 90.6134 130.264 91.017C130.486 91.4157 130.596 91.8636 130.596 92.3607C130.596 93.0104 130.424 93.5518 130.08 93.9849C129.74 94.4131 129.304 94.6789 128.773 94.7823C129.152 94.7921 129.521 94.8881 129.88 95.0702C130.24 95.2474 130.535 95.5107 130.766 95.8602C130.998 96.2047 131.113 96.6378 131.113 97.1595C131.113 97.9224 130.946 98.5475 130.611 99.0348C130.276 99.5171 129.826 99.8715 129.26 100.098C128.694 100.324 128.064 100.438 127.37 100.438H123.893ZM125.251 99.2562H127.23C127.998 99.2562 128.588 99.0914 129.002 98.7616C129.42 98.4269 129.629 97.9273 129.629 97.2629C129.629 96.7609 129.528 96.3819 129.327 96.1259C129.125 95.87 128.854 95.6977 128.514 95.6091C128.18 95.5156 127.803 95.4689 127.385 95.4689H125.251V99.2562ZM125.251 94.3245H127.126C127.535 94.3245 127.892 94.263 128.197 94.14C128.502 94.012 128.738 93.8127 128.906 93.542C129.078 93.2712 129.164 92.9169 129.164 92.4788C129.169 91.9719 129.019 91.5781 128.714 91.2976C128.414 91.017 127.872 90.8768 127.09 90.8768H125.251V94.3245ZM136.069 100.585C135.385 100.585 134.769 100.447 134.223 100.172C133.682 99.8912 133.253 99.458 132.938 98.8723C132.623 98.2817 132.466 97.5237 132.466 96.5984V89.6881H133.846V96.4286C133.846 96.9651 133.908 97.4179 134.031 97.7871C134.154 98.1513 134.321 98.4466 134.533 98.673C134.745 98.8945 134.983 99.0545 135.249 99.1529C135.52 99.2513 135.798 99.3005 136.083 99.3005C136.354 99.3005 136.617 99.2513 136.873 99.1529C137.134 99.0545 137.368 98.8945 137.575 98.673C137.782 98.4466 137.944 98.1513 138.062 97.7871C138.185 97.4179 138.247 96.9651 138.247 96.4286V89.7029H139.627V96.5984C139.627 97.5237 139.467 98.2817 139.147 98.8723C138.827 99.458 138.399 99.8912 137.863 100.172C137.326 100.447 136.728 100.585 136.069 100.585ZM144.952 100.585C144.214 100.585 143.556 100.467 142.981 100.231C142.41 99.9945 141.959 99.6279 141.63 99.1307C141.3 98.6336 141.13 97.9913 141.12 97.2038H142.479C142.488 97.7354 142.611 98.1587 142.848 98.4737C143.084 98.7837 143.392 99.0077 143.771 99.1455C144.154 99.2784 144.565 99.3448 145.004 99.3448C145.51 99.3448 145.929 99.271 146.259 99.1234C146.593 98.9708 146.844 98.7714 147.012 98.5254C147.179 98.2793 147.263 98.0159 147.263 97.7354C147.263 97.3318 147.159 97.0045 146.953 96.7535C146.746 96.5025 146.451 96.2933 146.067 96.1259C145.683 95.9537 145.227 95.7839 144.701 95.6165C144.12 95.4295 143.591 95.1932 143.114 94.9078C142.641 94.6223 142.264 94.2729 141.984 93.8594C141.703 93.4411 141.563 92.9464 141.563 92.3755C141.563 91.7455 141.718 91.2213 142.028 90.8029C142.338 90.3796 142.752 90.0622 143.269 89.8505C143.79 89.6389 144.364 89.5331 144.989 89.5331C145.924 89.5331 146.687 89.7816 147.277 90.2787C147.868 90.7709 148.225 91.5215 148.348 92.5305H147.034C146.989 92.1958 146.889 91.8956 146.731 91.6298C146.579 91.364 146.357 91.1548 146.067 91.0023C145.776 90.8448 145.402 90.766 144.944 90.766C144.314 90.766 143.815 90.9038 143.446 91.1795C143.077 91.4551 142.892 91.8365 142.892 92.3238C142.892 92.6683 142.958 92.9636 143.091 93.2097C143.229 93.4509 143.465 93.6724 143.8 93.8742C144.14 94.0711 144.607 94.2778 145.203 94.4943C145.631 94.6469 146.047 94.8069 146.451 94.9742C146.859 95.1416 147.223 95.3409 147.543 95.5722C147.868 95.7986 148.126 96.0816 148.318 96.4212C148.51 96.7559 148.606 97.1718 148.606 97.6689C148.611 98.2793 148.461 98.8034 148.156 99.2415C147.856 99.6746 147.43 100.007 146.879 100.238C146.332 100.469 145.69 100.585 144.952 100.585ZM150.491 100.438V99.1677H153.045V91.6298C153.045 91.4575 153.079 91.3148 153.148 91.2016C153.222 91.0884 153.316 91.0121 153.429 90.9727H150.491V89.7029H157.017V90.9727H154.455V98.5106C154.455 98.6779 154.418 98.8207 154.344 98.9388C154.275 99.052 154.184 99.1283 154.071 99.1677H157.017V100.438H150.491ZM159.167 100.438V89.7029H160.931L163.803 96.4065L164.874 98.9905H164.926L164.719 96.3622V89.7029H166.048V100.438H164.283L161.433 93.7782L160.378 91.2164H160.319L160.503 93.8889V100.438H159.167ZM168.345 100.438V89.7029H174.51V90.8915H169.121L169.719 90.323V94.6125L169.121 94.2138H173.986V95.4024H169.327L169.719 94.9668V99.9355L169.121 99.2267H174.828V100.438H168.345ZM180.366 100.585C179.628 100.585 178.971 100.467 178.395 100.231C177.824 99.9945 177.374 99.6279 177.044 99.1307C176.714 98.6336 176.544 97.9913 176.535 97.2038H177.893C177.903 97.7354 178.026 98.1587 178.262 98.4737C178.498 98.7837 178.806 99.0077 179.185 99.1455C179.569 99.2784 179.98 99.3448 180.418 99.3448C180.925 99.3448 181.343 99.271 181.673 99.1234C182.008 98.9708 182.259 98.7714 182.426 98.5254C182.593 98.2793 182.677 98.0159 182.677 97.7354C182.677 97.3318 182.574 97.0045 182.367 96.7535C182.16 96.5025 181.865 96.2933 181.481 96.1259C181.097 95.9537 180.642 95.7839 180.115 95.6165C179.534 95.4295 179.005 95.1932 178.528 94.9078C178.055 94.6223 177.679 94.2729 177.398 93.8594C177.118 93.4411 176.978 92.9464 176.978 92.3755C176.978 91.7455 177.133 91.2213 177.443 90.8029C177.753 90.3796 178.166 90.0622 178.683 89.8505C179.205 89.6389 179.778 89.5331 180.403 89.5331C181.338 89.5331 182.101 89.7816 182.692 90.2787C183.282 90.7709 183.639 91.5215 183.762 92.5305H182.448C182.404 92.1958 182.303 91.8956 182.146 91.6298C181.993 91.364 181.771 91.1548 181.481 91.0023C181.191 90.8448 180.817 90.766 180.359 90.766C179.729 90.766 179.229 90.9038 178.86 91.1795C178.491 91.4551 178.306 91.8365 178.306 92.3238C178.306 92.6683 178.373 92.9636 178.506 93.2097C178.644 93.4509 178.88 93.6724 179.215 93.8742C179.554 94.0711 180.022 94.2778 180.617 94.4943C181.045 94.6469 181.461 94.8069 181.865 94.9742C182.273 95.1416 182.638 95.3409 182.958 95.5722C183.282 95.7986 183.541 96.0816 183.733 96.4212C183.925 96.7559 184.021 97.1718 184.021 97.6689C184.026 98.2793 183.876 98.8034 183.57 99.2415C183.27 99.6746 182.844 100.007 182.293 100.238C181.747 100.469 181.105 100.585 180.366 100.585ZM189.22 100.585C188.482 100.585 187.825 100.467 187.249 100.231C186.678 99.9945 186.227 99.6279 185.898 99.1307C185.568 98.6336 185.398 97.9913 185.388 97.2038H186.747C186.756 97.7354 186.88 98.1587 187.116 98.4737C187.352 98.7837 187.66 99.0077 188.039 99.1455C188.423 99.2784 188.833 99.3448 189.272 99.3448C189.778 99.3448 190.197 99.271 190.527 99.1234C190.861 98.9708 191.112 98.7714 191.28 98.5254C191.447 98.2793 191.531 98.0159 191.531 97.7354C191.531 97.3318 191.427 97.0045 191.221 96.7535C191.014 96.5025 190.719 96.2933 190.335 96.1259C189.951 95.9537 189.495 95.7839 188.969 95.6165C188.388 95.4295 187.859 95.1932 187.382 94.9078C186.909 94.6223 186.533 94.2729 186.252 93.8594C185.971 93.4411 185.831 92.9464 185.831 92.3755C185.831 91.7455 185.986 91.2213 186.296 90.8029C186.606 90.3796 187.02 90.0622 187.537 89.8505C188.058 89.6389 188.632 89.5331 189.257 89.5331C190.192 89.5331 190.955 89.7816 191.545 90.2787C192.136 90.7709 192.493 91.5215 192.616 92.5305H191.302C191.258 92.1958 191.157 91.8956 190.999 91.6298C190.847 91.364 190.625 91.1548 190.335 91.0023C190.044 90.8448 189.67 90.766 189.212 90.766C188.582 90.766 188.083 90.9038 187.714 91.1795C187.345 91.4551 187.16 91.8365 187.16 92.3238C187.16 92.6683 187.227 92.9636 187.359 93.2097C187.497 93.4509 187.733 93.6724 188.068 93.8742C188.408 94.0711 188.875 94.2778 189.471 94.4943C189.899 94.6469 190.315 94.8069 190.719 94.9742C191.127 95.1416 191.491 95.3409 191.811 95.5722C192.136 95.7986 192.394 96.0816 192.586 96.4212C192.778 96.7559 192.874 97.1718 192.874 97.6689C192.879 98.2793 192.729 98.8034 192.424 99.2415C192.124 99.6746 191.698 100.007 191.147 100.238C190.6 100.469 189.958 100.585 189.22 100.585ZM206.898 100.585C206.213 100.585 205.598 100.447 205.052 100.172C204.51 99.8912 204.082 99.458 203.767 98.8723C203.452 98.2817 203.295 97.5237 203.295 96.5984V89.6881H204.675V96.4286C204.675 96.9651 204.737 97.4179 204.86 97.7871C204.983 98.1513 205.15 98.4466 205.362 98.673C205.574 98.8945 205.812 99.0545 206.078 99.1529C206.349 99.2513 206.627 99.3005 206.912 99.3005C207.183 99.3005 207.446 99.2513 207.702 99.1529C207.963 99.0545 208.197 98.8945 208.404 98.673C208.61 98.4466 208.773 98.1513 208.891 97.7871C209.014 97.4179 209.075 96.9651 209.075 96.4286V89.7029H210.456V96.5984C210.456 97.5237 210.296 98.2817 209.976 98.8723C209.656 99.458 209.228 99.8912 208.692 100.172C208.155 100.447 207.557 100.585 206.898 100.585ZM215.781 100.585C215.042 100.585 214.385 100.467 213.809 100.231C213.239 99.9945 212.788 99.6279 212.458 99.1307C212.129 98.6336 211.959 97.9913 211.949 97.2038H213.307C213.317 97.7354 213.44 98.1587 213.677 98.4737C213.913 98.7837 214.22 99.0077 214.599 99.1455C214.983 99.2784 215.394 99.3448 215.832 99.3448C216.339 99.3448 216.758 99.271 217.087 99.1234C217.422 98.9708 217.673 98.7714 217.84 98.5254C218.008 98.2793 218.092 98.0159 218.092 97.7354C218.092 97.3318 217.988 97.0045 217.781 96.7535C217.575 96.5025 217.279 96.2933 216.895 96.1259C216.512 95.9537 216.056 95.7839 215.53 95.6165C214.949 95.4295 214.42 95.1932 213.942 94.9078C213.47 94.6223 213.093 94.2729 212.813 93.8594C212.532 93.4411 212.392 92.9464 212.392 92.3755C212.392 91.7455 212.547 91.2213 212.857 90.8029C213.167 90.3796 213.581 90.0622 214.097 89.8505C214.619 89.6389 215.193 89.5331 215.818 89.5331C216.753 89.5331 217.516 89.7816 218.106 90.2787C218.697 90.7709 219.054 91.5215 219.177 92.5305H217.863C217.818 92.1958 217.717 91.8956 217.56 91.6298C217.407 91.364 217.186 91.1548 216.895 91.0023C216.605 90.8448 216.231 90.766 215.773 90.766C215.143 90.766 214.644 90.9038 214.275 91.1795C213.905 91.4551 213.721 91.8365 213.721 92.3238C213.721 92.6683 213.787 92.9636 213.92 93.2097C214.058 93.4509 214.294 93.6724 214.629 93.8742C214.969 94.0711 215.436 94.2778 216.032 94.4943C216.46 94.6469 216.876 94.8069 217.279 94.9742C217.688 95.1416 218.052 95.3409 218.372 95.5722C218.697 95.7986 218.955 96.0816 219.147 96.4212C219.339 96.7559 219.435 97.1718 219.435 97.6689C219.44 98.2793 219.29 98.8034 218.985 99.2415C218.685 99.6746 218.259 100.007 217.708 100.238C217.161 100.469 216.519 100.585 215.781 100.585ZM221.467 100.438V89.7029H227.632V90.8915H222.242L222.84 90.323V94.6125L222.242 94.2138H227.108V95.4024H222.449L222.84 94.9668V99.9355L222.242 99.2267H227.949V100.438H221.467Z" fill="black"/>
<path d="M352.814 52.4445C352.84 52.4464 352.866 52.4427 352.892 52.4474C352.955 52.4589 353.022 52.4832 353.097 52.5051L353.244 52.5397C353.369 52.57 353.485 52.6336 353.578 52.7214C353.66 52.7982 353.713 52.8819 353.749 52.9434C353.904 53.1608 353.963 53.3988 353.994 53.5779C354.039 53.8462 354.082 54.1136 354.126 54.3796C354.138 54.4516 354.155 54.5242 354.167 54.5959C354.175 54.6496 354.182 54.7037 354.19 54.7574C354.917 59.151 355.556 63.2418 357.209 67.3399C357.264 67.475 357.322 67.6072 357.379 67.7379C357.829 68.6858 358.321 69.5103 358.868 70.2325C360.177 71.9052 361.861 73.0803 363.779 73.9556C364.425 74.2503 365.097 74.5039 365.786 74.7371C367.904 75.4255 370.442 75.9654 373.527 76.5252C373.726 76.5613 374.116 76.6192 374.596 76.6924C374.968 76.7406 375.371 76.8009 375.79 76.8597C376.64 76.979 377.575 77.1329 378.196 77.3759C378.376 77.4479 378.523 77.5877 378.602 77.7653C378.61 77.7836 378.616 77.798 378.622 77.8114C378.624 77.8139 378.627 77.8172 378.628 77.82C378.639 77.839 378.718 77.9727 378.738 78.1488C378.74 78.1718 378.734 78.1942 378.735 78.2151C378.74 78.3412 378.723 78.4386 378.715 78.4718C378.709 78.4935 378.704 78.5225 378.7 78.5353C378.696 78.5515 378.691 78.57 378.686 78.5901C378.656 78.7182 378.59 78.8383 378.498 78.9332C378.228 79.2116 377.913 79.3507 377.57 79.4062C375.042 79.8129 372.34 80.1863 369.694 80.7674C369.029 80.9176 368.367 81.0767 367.71 81.249C365.535 81.8386 363.487 82.6115 361.723 83.7032C361.515 83.832 361.315 83.9688 361.12 84.1099C360.43 84.63 359.807 85.2138 359.245 85.8633C358.177 87.1371 357.379 88.6533 356.757 90.3045C356.51 90.9578 356.292 91.6271 356.096 92.3059C356.072 92.3913 356.051 92.4774 356.027 92.5626C355.442 94.6572 355.053 96.8301 354.663 98.8726C354.562 99.4013 354.453 100.294 354.311 101.246C354.242 101.707 354.165 102.174 354.08 102.584C353.998 102.982 353.898 103.379 353.769 103.674C353.635 103.977 353.318 104.148 352.996 104.104C352.969 104.102 352.942 104.109 352.915 104.104C352.859 104.094 352.8 104.068 352.734 104.049L352.563 104.012C352.439 103.981 352.325 103.918 352.232 103.83C352.151 103.754 352.094 103.67 352.059 103.608C351.903 103.391 351.844 103.153 351.814 102.974C351.766 102.693 351.718 102.412 351.672 102.134C351.662 102.074 351.65 102.015 351.641 101.955C351.632 101.901 351.623 101.846 351.615 101.791C350.887 97.3985 350.251 93.3088 348.598 89.2115C348.541 89.0707 348.48 88.9323 348.419 88.7962C347.967 87.8455 347.473 87.0192 346.922 86.2959C345.864 84.9495 344.563 83.9234 343.09 83.1207C340.57 81.9776 337.536 82.2239 335.145 83.7032C334.936 83.832 334.737 83.9688 334.542 84.1099C333.852 84.63 333.229 85.2138 332.667 85.8633C331.598 87.1371 330.801 88.6533 330.178 90.3045C329.932 90.9578 329.714 91.6271 329.518 92.3059C329.494 92.3913 329.473 92.4774 329.449 92.5626C328.864 94.6572 328.475 96.8301 328.085 98.8726C327.984 99.4013 327.875 100.294 327.733 101.246C327.664 101.707 327.587 102.174 327.502 102.584C327.42 102.982 327.32 103.379 327.191 103.674C327.057 103.977 326.74 104.148 326.418 104.104C326.391 104.102 326.364 104.109 326.337 104.104C326.281 104.094 326.222 104.068 326.155 104.049L325.985 104.012C325.861 103.981 325.747 103.918 325.654 103.83C325.572 103.754 325.516 103.67 325.481 103.608C325.325 103.391 325.266 103.153 325.235 102.974C325.188 102.693 325.14 102.412 325.094 102.134C325.084 102.074 325.072 102.015 325.062 101.955C325.054 101.901 325.045 101.846 325.036 101.791C324.309 97.3985 323.672 93.3088 322.02 89.2115C321.963 89.0707 321.901 88.9323 321.841 88.7962C321.389 87.8455 320.895 87.0192 320.344 86.2959C319.285 84.9495 317.985 83.9234 316.512 83.1207C313.991 81.9776 310.957 82.2239 308.566 83.7032C308.358 83.832 308.158 83.9688 307.964 84.1099C307.274 84.63 306.651 85.2138 306.089 85.8633C305.02 87.1371 304.223 88.6533 303.6 90.3045C303.354 90.9578 303.135 91.6271 302.94 92.3059C302.916 92.3913 302.895 92.4774 302.871 92.5626C302.286 94.6572 301.897 96.8301 301.507 98.8726C301.406 99.4013 301.297 100.294 301.155 101.246C301.086 101.707 301.009 102.174 300.924 102.584C300.842 102.982 300.742 103.379 300.613 103.674C300.479 103.977 300.162 104.148 299.84 104.104C299.813 104.102 299.786 104.109 299.759 104.104C299.703 104.094 299.643 104.068 299.577 104.049L299.407 104.012C299.282 103.981 299.169 103.918 299.075 103.83C298.994 103.754 298.938 103.67 298.902 103.608C298.747 103.391 298.688 103.153 298.657 102.974C298.61 102.693 298.562 102.412 298.516 102.134C298.506 102.074 298.494 102.015 298.484 101.955C298.476 101.901 298.467 101.846 298.458 101.791C297.731 97.3985 297.094 93.3088 295.442 89.2115C295.385 89.0707 295.323 88.9323 295.263 88.7962C294.811 87.8455 294.316 87.0192 293.766 86.2959C292.46 84.6349 290.782 83.4673 288.872 82.5958C288.214 82.2953 287.528 82.0337 286.825 81.797C284.715 81.115 282.189 80.5823 279.125 80.0262C278.914 79.9881 278.49 79.9238 277.971 79.8446C277.623 79.7996 277.249 79.7461 276.861 79.6917C276.011 79.5725 275.076 79.4184 274.456 79.1755C274.275 79.1037 274.129 78.9632 274.049 78.7862C274.039 78.764 274.03 78.7472 274.023 78.7314C274.014 78.7167 273.934 78.5819 273.913 78.4026V78.2007C273.92 78.1428 273.931 78.1001 273.936 78.0796C273.941 78.0585 273.947 78.0295 273.951 78.0162C273.955 78.0001 273.96 77.9812 273.965 77.9614C273.995 77.8331 274.059 77.7132 274.15 77.6182C274.42 77.3395 274.738 77.2007 275.081 77.1452C277.616 76.7373 280.327 76.3595 282.98 75.7754C283.637 75.6269 284.29 75.4696 284.939 75.2995C287.114 74.7099 289.163 73.9402 290.928 72.8482C291.147 72.7127 291.356 72.5647 291.56 72.4156C292.127 71.9853 292.652 71.5146 293.132 70.9967C294.339 69.6619 295.221 68.0348 295.895 66.2469C296.929 63.5026 297.455 60.4685 297.988 57.6788C298.089 57.1504 298.198 56.2573 298.34 55.3054C298.409 54.8444 298.486 54.3777 298.571 53.9672C298.653 53.5701 298.753 53.1723 298.882 52.8771C299.016 52.5733 299.335 52.3996 299.658 52.4445C299.684 52.4464 299.71 52.4427 299.736 52.4474C299.798 52.4589 299.866 52.4832 299.941 52.5051L300.088 52.5397C300.212 52.57 300.329 52.6336 300.422 52.7214C300.504 52.7982 300.557 52.8819 300.592 52.9434C300.748 53.1608 300.807 53.3988 300.838 53.5779C300.883 53.8462 300.926 54.1136 300.97 54.3796C300.982 54.4516 300.999 54.5242 301.011 54.5959C301.019 54.6496 301.025 54.7037 301.034 54.7574C301.761 59.151 302.4 63.2418 304.053 67.3399C304.108 67.475 304.165 67.6072 304.223 67.7379C304.673 68.6858 305.165 69.5103 305.711 70.2325C306.778 71.5959 308.095 72.6277 309.584 73.4365C312.1 74.5682 315.123 74.323 317.507 72.8482C317.726 72.7127 317.934 72.5647 318.138 72.4156C318.706 71.9853 319.23 71.5146 319.71 70.9967C320.917 69.6619 321.799 68.0348 322.473 66.2469C323.507 63.5026 324.033 60.4685 324.566 57.6788C324.667 57.1504 324.776 56.2573 324.918 55.3054C324.987 54.8444 325.064 54.3777 325.149 53.9672C325.231 53.5701 325.331 53.1723 325.46 52.8771C325.594 52.5733 325.913 52.3996 326.236 52.4445C326.262 52.4464 326.288 52.4427 326.314 52.4474C326.376 52.4589 326.444 52.4832 326.519 52.5051L326.666 52.5397C326.79 52.57 326.907 52.6336 327 52.7214C327.082 52.7982 327.135 52.8819 327.171 52.9434C327.326 53.1608 327.385 53.3988 327.416 53.5779C327.461 53.8462 327.504 54.1136 327.548 54.3796C327.56 54.4516 327.577 54.5242 327.589 54.5959C327.597 54.6496 327.604 54.7037 327.612 54.7574C328.339 59.151 328.978 63.2418 330.631 67.3399C330.686 67.475 330.744 67.6072 330.801 67.7379C331.251 68.6858 331.743 69.5103 332.289 70.2325C333.356 71.5959 334.673 72.6277 336.163 73.4365C338.678 74.5682 341.701 74.323 344.085 72.8482C344.304 72.7127 344.512 72.5647 344.716 72.4156C345.284 71.9853 345.808 71.5146 346.288 70.9967C347.495 69.6619 348.377 68.0348 349.051 66.2469C350.085 63.5026 350.612 60.4685 351.144 57.6788C351.245 57.1504 351.354 56.2573 351.496 55.3054C351.565 54.8444 351.642 54.3777 351.727 53.9672C351.809 53.5701 351.909 53.1723 352.038 52.8771C352.172 52.5733 352.491 52.3996 352.814 52.4445Z" stroke="black" stroke-width="1.47656" stroke-linecap="round"/>
<path d="M0.738281 126.109H378.738" stroke="black" stroke-width="1.47656" stroke-linecap="round"/>
<path d="M7.68551 154.875L5.16059 150.497H3.10816L2.61352 150.386L2.835 149.478V149.242H5.18273C5.64047 149.242 6.00715 149.148 6.28277 148.961C6.5584 148.769 6.75527 148.518 6.8734 148.208C6.99645 147.898 7.05797 147.561 7.05797 147.197C7.05797 146.793 6.99152 146.456 6.85863 146.185C6.72574 145.91 6.50918 145.703 6.20895 145.565C5.90871 145.427 5.50758 145.359 5.00555 145.359L3.24105 145.351L3.23367 144.997L2.60613 144.14C2.83254 144.14 3.08602 144.14 3.36656 144.14C3.64711 144.14 3.92273 144.14 4.19344 144.14C4.46414 144.14 4.69793 144.14 4.8948 144.14C6.09082 144.14 6.9866 144.389 7.58215 144.886C8.1777 145.378 8.47547 146.102 8.47547 147.057C8.47547 147.416 8.43609 147.773 8.35734 148.127C8.27859 148.477 8.14078 148.804 7.94391 149.109C7.74703 149.414 7.47633 149.675 7.1318 149.892C6.78727 150.103 6.34922 150.251 5.81766 150.335L5.85457 150.157C6.02684 150.152 6.16957 150.167 6.28277 150.202C6.4009 150.236 6.50426 150.3 6.59285 150.394C6.68637 150.487 6.78234 150.622 6.88078 150.8L9.2359 154.875H7.68551ZM1.92691 154.875V144.14H3.28535V154.875H1.92691ZM10.906 154.875V144.14H17.0707V145.329H11.6812L12.2792 144.761V149.05L11.6812 148.651H16.5465V149.84H11.8879L12.2792 149.404V154.373L11.6812 153.664H17.3881V154.875H10.906ZM23.0376 155.089C22.1714 155.089 21.4429 154.863 20.8523 154.41C20.2666 153.952 19.8236 153.302 19.5234 152.461C19.2232 151.619 19.073 150.625 19.073 149.478C19.073 148.317 19.2305 147.325 19.5455 146.503C19.8655 145.676 20.3355 145.044 20.9557 144.606C21.5758 144.163 22.3387 143.941 23.2443 143.941C23.7956 143.941 24.2927 144.044 24.7357 144.251C25.1835 144.458 25.5551 144.802 25.8505 145.285C26.1458 145.762 26.3377 146.412 26.4263 147.234H25.0753C25.0359 146.835 24.9374 146.486 24.7799 146.185C24.6274 145.885 24.4133 145.651 24.1376 145.484C23.8669 145.312 23.5298 145.226 23.1262 145.226C22.506 145.226 21.9991 145.4 21.6053 145.75C21.2165 146.099 20.9286 146.594 20.7416 147.234C20.5594 147.869 20.4684 148.617 20.4684 149.478C20.4684 150.379 20.5717 151.154 20.7785 151.804C20.9901 152.449 21.2879 152.943 21.6718 153.288C22.0557 153.632 22.5085 153.804 23.0302 153.804C23.488 153.804 23.8891 153.743 24.2336 153.62C24.5782 153.497 24.871 153.33 25.1122 153.118V150.563H23.1853V149.286H26.3968L26.382 153.782C26.0621 154.048 25.7323 154.279 25.3927 154.476C25.0531 154.673 24.6914 154.823 24.3074 154.927C23.9235 155.035 23.5003 155.089 23.0376 155.089ZM28.4656 154.875V153.605H31.02V146.067C31.02 145.895 31.0545 145.752 31.1234 145.639C31.1972 145.526 31.2907 145.45 31.4039 145.41H28.4656V144.14H34.992V145.41H32.4302V152.948C32.4302 153.115 32.3932 153.258 32.3194 153.376C32.2505 153.489 32.1595 153.566 32.0463 153.605H34.992V154.875H28.4656ZM40.6341 155.023C39.8958 155.023 39.2387 154.905 38.6629 154.668C38.0919 154.432 37.6416 154.065 37.3118 153.568C36.982 153.071 36.8122 152.429 36.8024 151.641H38.1608C38.1707 152.173 38.2937 152.596 38.53 152.911C38.7662 153.221 39.0738 153.445 39.4528 153.583C39.8367 153.716 40.2477 153.782 40.6858 153.782C41.1927 153.782 41.6111 153.709 41.9408 153.561C42.2755 153.408 42.5265 153.209 42.6939 152.963C42.8612 152.717 42.9449 152.453 42.9449 152.173C42.9449 151.769 42.8415 151.442 42.6348 151.191C42.4281 150.94 42.1328 150.731 41.7489 150.563C41.365 150.391 40.9097 150.221 40.3831 150.054C39.8023 149.867 39.2732 149.631 38.7958 149.345C38.3233 149.06 37.9467 148.71 37.6662 148.297C37.3856 147.879 37.2454 147.384 37.2454 146.813C37.2454 146.183 37.4004 145.659 37.7105 145.24C38.0206 144.817 38.434 144.5 38.9508 144.288C39.4725 144.076 40.0459 143.971 40.671 143.971C41.6061 143.971 42.369 144.219 42.9597 144.716C43.5503 145.208 43.9071 145.959 44.0302 146.968H42.716C42.6717 146.633 42.5708 146.333 42.4133 146.067C42.2608 145.802 42.0393 145.592 41.7489 145.44C41.4585 145.282 41.0844 145.204 40.6267 145.204C39.9967 145.204 39.4971 145.341 39.128 145.617C38.7588 145.893 38.5743 146.274 38.5743 146.761C38.5743 147.106 38.6407 147.401 38.7736 147.647C38.9114 147.888 39.1477 148.11 39.4824 148.312C39.822 148.509 40.2895 148.715 40.8851 148.932C41.3133 149.084 41.7292 149.244 42.1328 149.412C42.5413 149.579 42.9055 149.778 43.2254 150.01C43.5503 150.236 43.8087 150.519 44.0006 150.859C44.1926 151.193 44.2886 151.609 44.2886 152.106C44.2935 152.717 44.1434 153.241 43.8382 153.679C43.538 154.112 43.1122 154.444 42.561 154.676C42.0147 154.907 41.3724 155.023 40.6341 155.023ZM48.7346 154.875V146.053C48.7346 145.88 48.7691 145.738 48.838 145.624C48.9069 145.511 49.0004 145.435 49.1185 145.395H45.7446V144.14H53.1274V145.395H50.1374V154.875H48.7346ZM55.1741 154.875V144.14H61.3387V145.329H55.9493L56.5473 144.761V149.05L55.9493 148.651H60.8145V149.84H56.156L56.5473 149.404V154.373L55.9493 153.664H61.6562V154.875H55.1741ZM69.6608 154.875L67.1358 150.497H65.0834L64.5888 150.386L64.8103 149.478V149.242H67.158C67.6157 149.242 67.9824 149.148 68.258 148.961C68.5336 148.769 68.7305 148.518 68.8486 148.208C68.9717 147.898 69.0332 147.561 69.0332 147.197C69.0332 146.793 68.9668 146.456 68.8339 146.185C68.701 145.91 68.4844 145.703 68.1842 145.565C67.884 145.427 67.4828 145.359 66.9808 145.359L65.2163 145.351L65.2089 144.997L64.5814 144.14C64.8078 144.14 65.0613 144.14 65.3418 144.14C65.6224 144.14 65.898 144.14 66.1687 144.14C66.4394 144.14 66.6732 144.14 66.8701 144.14C68.0661 144.14 68.9619 144.389 69.5574 144.886C70.1529 145.378 70.4507 146.102 70.4507 147.057C70.4507 147.416 70.4113 147.773 70.3326 148.127C70.2538 148.477 70.116 148.804 69.9192 149.109C69.7223 149.414 69.4516 149.675 69.107 149.892C68.7625 150.103 68.3245 150.251 67.7929 150.335L67.8298 150.157C68.0021 150.152 68.1448 150.167 68.258 150.202C68.3761 150.236 68.4795 150.3 68.5681 150.394C68.6616 150.487 68.7576 150.622 68.856 150.8L71.2111 154.875H69.6608ZM63.9022 154.875V144.14H65.2606V154.875H63.9022ZM72.8813 154.875V144.14H79.0459V145.329H73.6565L74.2545 144.761V149.05L73.6565 148.651H78.5217V149.84H73.8632L74.2545 149.404V154.373L73.6565 153.664H79.3634V154.875H72.8813ZM82.8349 154.875L82.5027 153.59H84.1491C84.8086 153.59 85.3746 153.433 85.8471 153.118C86.3196 152.798 86.6814 152.33 86.9324 151.715C87.1834 151.1 87.3089 150.347 87.3089 149.456C87.3089 148.516 87.1883 147.751 86.9472 147.16C86.7109 146.564 86.3565 146.126 85.884 145.846C85.4164 145.565 84.8357 145.425 84.1417 145.425H82.4436L82.8349 144.14H83.9793C85.4607 144.14 86.6198 144.564 87.4566 145.41C88.2933 146.257 88.7116 147.6 88.7116 149.441C88.7116 150.632 88.5098 151.631 88.1063 152.439C87.7027 153.246 87.1465 153.854 86.4377 154.262C85.729 154.671 84.912 154.875 83.9866 154.875H82.8349ZM81.4617 154.875V144.14H82.8349V154.875H81.4617ZM102.609 155.023C101.871 155.023 101.214 154.905 100.638 154.668C100.067 154.432 99.6168 154.065 99.2871 153.568C98.9573 153.071 98.7875 152.429 98.7776 151.641H100.136C100.146 152.173 100.269 152.596 100.505 152.911C100.741 153.221 101.049 153.445 101.428 153.583C101.812 153.716 102.223 153.782 102.661 153.782C103.168 153.782 103.586 153.709 103.916 153.561C104.251 153.408 104.502 153.209 104.669 152.963C104.836 152.717 104.92 152.453 104.92 152.173C104.92 151.769 104.817 151.442 104.61 151.191C104.403 150.94 104.108 150.731 103.724 150.563C103.34 150.391 102.885 150.221 102.358 150.054C101.778 149.867 101.248 149.631 100.771 149.345C100.299 149.06 99.922 148.71 99.6414 148.297C99.3609 147.879 99.2206 147.384 99.2206 146.813C99.2206 146.183 99.3757 145.659 99.6857 145.24C99.9958 144.817 100.409 144.5 100.926 144.288C101.448 144.076 102.021 143.971 102.646 143.971C103.581 143.971 104.344 144.219 104.935 144.716C105.526 145.208 105.882 145.959 106.005 146.968H104.691C104.647 146.633 104.546 146.333 104.389 146.067C104.236 145.802 104.015 145.592 103.724 145.44C103.434 145.282 103.06 145.204 102.602 145.204C101.972 145.204 101.472 145.341 101.103 145.617C100.734 145.893 100.55 146.274 100.55 146.761C100.55 147.106 100.616 147.401 100.749 147.647C100.887 147.888 101.123 148.11 101.458 148.312C101.797 148.509 102.265 148.715 102.86 148.932C103.289 149.084 103.704 149.244 104.108 149.412C104.517 149.579 104.881 149.778 105.201 150.01C105.526 150.236 105.784 150.519 105.976 150.859C106.168 151.193 106.264 151.609 106.264 152.106C106.269 152.717 106.119 153.241 105.813 153.679C105.513 154.112 105.087 154.444 104.536 154.676C103.99 154.907 103.348 155.023 102.609 155.023ZM111.433 155.023C110.749 155.023 110.134 154.885 109.588 154.609C109.046 154.329 108.618 153.896 108.303 153.31C107.988 152.719 107.831 151.961 107.831 151.036V144.126H109.211V150.866C109.211 151.403 109.273 151.855 109.396 152.225C109.519 152.589 109.686 152.884 109.898 153.111C110.109 153.332 110.348 153.492 110.614 153.59C110.885 153.689 111.163 153.738 111.448 153.738C111.719 153.738 111.982 153.689 112.238 153.59C112.499 153.492 112.733 153.332 112.939 153.111C113.146 152.884 113.309 152.589 113.427 152.225C113.55 151.855 113.611 151.403 113.611 150.866V144.14H114.992V151.036C114.992 151.961 114.832 152.719 114.512 153.31C114.192 153.896 113.764 154.329 113.227 154.609C112.691 154.885 112.093 155.023 111.433 155.023ZM118.906 150.984C118.754 150.984 118.626 150.94 118.523 150.851C118.424 150.758 118.375 150.635 118.375 150.482L117.858 150.076L118.382 149.722H120.641C121.168 149.722 121.594 149.636 121.919 149.463C122.243 149.286 122.482 149.033 122.635 148.703C122.787 148.368 122.864 147.965 122.864 147.492C122.864 147.015 122.78 146.626 122.613 146.326C122.45 146.021 122.199 145.797 121.86 145.654C121.525 145.506 121.097 145.432 120.575 145.432H118.338L117.696 144.14C117.868 144.14 118.082 144.14 118.338 144.14C118.599 144.14 118.867 144.14 119.143 144.14C119.423 144.14 119.687 144.14 119.933 144.14C120.179 144.14 120.378 144.14 120.531 144.14C121.805 144.14 122.75 144.411 123.366 144.952C123.981 145.494 124.288 146.316 124.288 147.418C124.288 147.901 124.22 148.356 124.082 148.784C123.949 149.212 123.737 149.591 123.447 149.921C123.156 150.251 122.777 150.512 122.31 150.704C121.842 150.891 121.274 150.984 120.604 150.984H118.906ZM117.002 154.875V144.14H118.382V154.875H117.002ZM127.76 150.984C127.607 150.984 127.479 150.94 127.376 150.851C127.278 150.758 127.228 150.635 127.228 150.482L126.712 150.076L127.236 149.722H129.495C130.022 149.722 130.447 149.636 130.772 149.463C131.097 149.286 131.336 149.033 131.488 148.703C131.641 148.368 131.717 147.965 131.717 147.492C131.717 147.015 131.634 146.626 131.466 146.326C131.304 146.021 131.053 145.797 130.713 145.654C130.378 145.506 129.95 145.432 129.429 145.432H127.192L126.549 144.14C126.722 144.14 126.936 144.14 127.192 144.14C127.452 144.14 127.721 144.14 127.996 144.14C128.277 144.14 128.54 144.14 128.786 144.14C129.032 144.14 129.232 144.14 129.384 144.14C130.659 144.14 131.604 144.411 132.219 144.952C132.834 145.494 133.142 146.316 133.142 147.418C133.142 147.901 133.073 148.356 132.935 148.784C132.802 149.212 132.591 149.591 132.3 149.921C132.01 150.251 131.631 150.512 131.164 150.704C130.696 150.891 130.127 150.984 129.458 150.984H127.76ZM125.855 154.875V144.14H127.236V154.875H125.855ZM134.768 154.875V144.14H136.156V154.262L135.432 153.59H141.42V154.875H134.768ZM143.562 154.875V153.605H146.117V146.067C146.117 145.895 146.151 145.752 146.22 145.639C146.294 145.526 146.388 145.45 146.501 145.41H143.562V144.14H150.089V145.41H147.527V152.948C147.527 153.115 147.49 153.258 147.416 153.376C147.347 153.489 147.256 153.566 147.143 153.605H150.089V154.875H143.562ZM152.564 154.875V144.14H158.728V145.329H153.339L153.937 144.761V149.05L153.339 148.651H158.204V149.84H153.546L153.937 149.404V154.373L153.339 153.664H159.046V154.875H152.564ZM167.05 154.875L164.526 150.497H162.473L161.978 150.386L162.2 149.478V149.242H164.548C165.005 149.242 165.372 149.148 165.648 148.961C165.923 148.769 166.12 148.518 166.238 148.208C166.361 147.898 166.423 147.561 166.423 147.197C166.423 146.793 166.356 146.456 166.224 146.185C166.091 145.91 165.874 145.703 165.574 145.565C165.274 145.427 164.873 145.359 164.37 145.359L162.606 145.351L162.599 144.997L161.971 144.14C162.197 144.14 162.451 144.14 162.731 144.14C163.012 144.14 163.288 144.14 163.558 144.14C163.829 144.14 164.063 144.14 164.26 144.14C165.456 144.14 166.352 144.389 166.947 144.886C167.543 145.378 167.84 146.102 167.84 147.057C167.84 147.416 167.801 147.773 167.722 148.127C167.644 148.477 167.506 148.804 167.309 149.109C167.112 149.414 166.841 149.675 166.497 149.892C166.152 150.103 165.714 150.251 165.183 150.335L165.219 150.157C165.392 150.152 165.534 150.167 165.648 150.202C165.766 150.236 165.869 150.3 165.958 150.394C166.051 150.487 166.147 150.622 166.246 150.8L168.601 154.875H167.05ZM161.292 154.875V144.14H162.65V154.875H161.292Z" fill="black"/>
<path d="M256.052 154.875V144.14H262.217V145.329H256.828L257.426 144.761V149.05L256.828 148.651H261.693V149.84H257.034L257.426 149.404V154.373L256.828 153.664H262.535V154.875H256.052ZM263.607 154.875L267.084 144.14H268.974L272.436 154.875H270.989L269.985 151.649L270.775 152.21H265.438L265.954 151.006H270.406L269.963 151.575L268.649 147.3L268.044 145.137H267.999L267.401 147.3L265.061 154.875H263.607ZM279.393 154.875L276.868 150.497H274.815L274.321 150.386L274.542 149.478V149.242H276.89C277.348 149.242 277.714 149.148 277.99 148.961C278.266 148.769 278.462 148.518 278.581 148.208C278.704 147.898 278.765 147.561 278.765 147.197C278.765 146.793 278.699 146.456 278.566 146.185C278.433 145.91 278.216 145.703 277.916 145.565C277.616 145.427 277.215 145.359 276.713 145.359L274.948 145.351L274.941 144.997L274.313 144.14C274.54 144.14 274.793 144.14 275.074 144.14C275.354 144.14 275.63 144.14 275.901 144.14C276.171 144.14 276.405 144.14 276.602 144.14C277.798 144.14 278.694 144.389 279.289 144.886C279.885 145.378 280.183 146.102 280.183 147.057C280.183 147.416 280.143 147.773 280.065 148.127C279.986 148.477 279.848 148.804 279.651 149.109C279.454 149.414 279.184 149.675 278.839 149.892C278.494 150.103 278.056 150.251 277.525 150.335L277.562 150.157C277.734 150.152 277.877 150.167 277.99 150.202C278.108 150.236 278.211 150.3 278.3 150.394C278.394 150.487 278.49 150.622 278.588 150.8L280.943 154.875H279.393ZM273.634 154.875V144.14H274.993V154.875H273.634ZM285.027 154.875V146.053C285.027 145.88 285.062 145.738 285.131 145.624C285.2 145.511 285.293 145.435 285.411 145.395H282.037V144.14H289.42V145.395H286.43V154.875H285.027ZM296.642 154.875V144.14H298.023V154.875H296.642ZM291.142 154.875V144.14H292.523V154.875H291.142ZM292.139 149.988V148.74H296.893L296.878 149.988H292.139ZM309.226 156.315L313.98 142.391H315.353L310.599 156.315H309.226ZM325.582 154.875L329.059 144.14H330.949L334.412 154.875H332.965L331.961 151.649L332.751 152.21H327.413L327.93 151.006H332.381L331.939 151.575L330.624 147.3L330.019 145.137H329.975L329.377 147.3L327.036 154.875H325.582ZM338.939 155.082C338.132 155.082 337.44 154.85 336.864 154.388C336.289 153.925 335.848 153.27 335.543 152.424C335.238 151.577 335.085 150.581 335.085 149.434C335.085 148.326 335.243 147.362 335.558 146.54C335.878 145.713 336.33 145.073 336.916 144.62C337.502 144.163 338.191 143.934 338.983 143.934C339.692 143.934 340.3 144.086 340.807 144.391C341.319 144.692 341.713 145.137 341.988 145.728C342.269 146.318 342.419 147.052 342.438 147.928H340.969C340.945 147.347 340.861 146.855 340.718 146.451C340.58 146.043 340.371 145.733 340.091 145.521C339.815 145.309 339.453 145.204 339.005 145.204C338.454 145.204 337.994 145.363 337.625 145.683C337.256 146.003 336.975 146.478 336.783 147.108C336.596 147.733 336.503 148.506 336.503 149.426C336.503 150.8 336.717 151.875 337.145 152.653C337.578 153.43 338.196 153.819 338.998 153.819C339.431 153.819 339.788 153.728 340.069 153.546C340.349 153.359 340.563 153.115 340.711 152.815C340.859 152.51 340.947 152.18 340.977 151.826H342.379C342.35 152.357 342.242 152.827 342.055 153.236C341.872 153.64 341.626 153.979 341.316 154.255C341.011 154.526 340.657 154.732 340.253 154.875C339.85 155.013 339.412 155.082 338.939 155.082ZM347.003 154.875V146.053C347.003 145.88 347.037 145.738 347.106 145.624C347.175 145.511 347.268 145.435 347.387 145.395H344.013V144.14H351.395V145.395H348.405V154.875H347.003ZM353.294 154.875V153.605H355.849V146.067C355.849 145.895 355.883 145.752 355.952 145.639C356.026 145.526 356.12 145.45 356.233 145.41H353.294V144.14H359.821V145.41H357.259V152.948C357.259 153.115 357.222 153.258 357.148 153.376C357.079 153.489 356.988 153.566 356.875 153.605H359.821V154.875H353.294ZM364.474 154.875L361.255 144.14H362.82L364.887 151.7L365.367 153.561H365.463L365.943 151.7L368.003 144.14H369.568L366.356 154.875H364.474ZM371.149 154.875V144.14H377.314V145.329H371.925L372.523 144.761V149.05L371.925 148.651H376.79V149.84H372.131L372.523 149.404V154.373L371.925 153.664H377.631V154.875H371.149Z" fill="black"/>
</svg>
